<?xml version="1.0" encoding="utf-8"?>
<!-- Generator: Adobe Illustrator 25.4.1, SVG Export Plug-In . SVG Version: 6.00 Build 0)  -->
<svg version="1.1" id="Layer_1" xmlns="http://www.w3.org/2000/svg" xmlns:xlink="http://www.w3.org/1999/xlink" x="0px" y="0px"
	 viewBox="0 0 4000 4000" style="enable-background:new 0 0 4000 4000;" xml:space="preserve">
<style type="text/css">
	.st0{fill:#3D3144;}
	.st1{fill:#61ED46;}
	.st2{opacity:0.3;}
	.st3{fill:#000072;}
	.st4{fill:#4D5A6A;}
	.st5{opacity:0.55;}
	.st6{fill:#FFFFFF;}
	.st7{opacity:0.4;}
	.st8{fill:#FDBD91;}
	.st9{fill:#1E1E1E;}
	.st10{opacity:0.2;}
	.st11{fill:#FEFEFE;}
	.st12{filter:url(#Adobe_OpacityMaskFilter);}
	.st13{filter:url(#Adobe_OpacityMaskFilter_00000136403409360991379320000009332915293212696705_);}
	.st14{mask:url(#SVGID_1_);fill:url(#SVGID_00000095301816721606708390000005100669351555430837_);}
	.st15{opacity:0.5;fill:url(#SVGID_00000142168561684520833570000003432259285212404629_);}
	.st16{fill:#C6D3E3;}
	.st17{fill:#C6D3E3;stroke:#FFFFFF;stroke-miterlimit:10;}
	.st18{fill:#000072;stroke:#FFFFFF;stroke-miterlimit:10;}
	.st19{opacity:0.75;}
	.st20{fill:#FFFFFF;stroke:#000000;stroke-miterlimit:10;}
	.st21{fill:#D3DDED;stroke:#000000;stroke-miterlimit:10;}
	.st22{fill:none;stroke:#000000;stroke-linecap:round;stroke-miterlimit:10;}
	.st23{fill:#777782;stroke:#000000;stroke-miterlimit:10;}
	.st24{fill:#DFE8F4;stroke:#000000;stroke-miterlimit:10;}
	.st25{fill:#000072;stroke:#000000;stroke-miterlimit:10;}
	.st26{fill:#F9ACBC;stroke:#000000;stroke-miterlimit:10;}
	.st27{fill:#A1ACC6;stroke:#000000;stroke-miterlimit:10;}
	.st28{fill:#A84E20;stroke:#000000;stroke-miterlimit:10;}
	.st29{fill:#626272;stroke:#000000;stroke-miterlimit:10;}
	.st30{fill:#E23B3B;stroke:#000000;stroke-miterlimit:10;}
	.st31{fill:#FFD2DD;stroke:#000000;stroke-miterlimit:10;}
	.st32{fill:#F7B5C8;stroke:#000000;stroke-miterlimit:10;}
	.st33{fill:#FFFFFF;stroke:#000000;stroke-width:13;stroke-miterlimit:10;}
	.st34{fill:#F46E94;stroke:#000000;stroke-miterlimit:10;}
	.st35{fill:none;stroke:#000000;stroke-width:8;stroke-linecap:round;stroke-linejoin:round;stroke-miterlimit:10;}
	.st36{fill:#512717;stroke:#000000;stroke-miterlimit:10;}
	.st37{fill:#FFABAB;stroke:#000000;stroke-miterlimit:10;}
	.st38{fill:#FF7C1A;stroke:#000000;stroke-miterlimit:10;}
	.st39{fill:#FF5D1D;stroke:#000000;stroke-miterlimit:10;}
	.st40{opacity:0.3;fill:#FFFFFF;stroke:#000000;stroke-miterlimit:10;}
	.st41{fill:none;stroke:#000000;stroke-miterlimit:10;}
	.st42{fill:#5AE83D;stroke:#020202;stroke-width:2;stroke-miterlimit:10;}
	.st43{fill:#6DE242;stroke:#020202;stroke-width:2;stroke-miterlimit:10;}
	.st44{fill:#C2FFAB;stroke:#020202;stroke-width:2;stroke-miterlimit:10;}
	.st45{opacity:0.5;fill:#FFFFFF;stroke:#020202;stroke-width:2;stroke-miterlimit:10;}
	.st46{fill:#57C134;stroke:#020202;stroke-width:2;stroke-miterlimit:10;}
	.st47{fill:#9BEF78;stroke:#020202;stroke-width:2;stroke-miterlimit:10;}
	.st48{fill:none;stroke:#020202;stroke-width:2;stroke-miterlimit:10;}
	.st49{fill:#389113;stroke:#020202;stroke-width:2;stroke-miterlimit:10;}
	.st50{opacity:0.5;fill:#FFFFFF;stroke:#000000;stroke-miterlimit:10;}
</style>
<g>
	<circle class="st0" cx="2058" cy="1769.6" r="1153.6"/>
</g>
<g>
	<g>
		<path class="st1" d="M2947.2,1294.8h-222.1c-8.6,0-15.5-6.9-15.5-15.5c0-8.6,6.9-15.5,15.5-15.5h222.1c8.6,0,15.5,6.9,15.5,15.5
			C2962.7,1287.8,2955.8,1294.8,2947.2,1294.8z"/>
	</g>
	<g>
		<path class="st1" d="M2510.8,1294.8h-909.4c-8.6,0-15.5-6.9-15.5-15.5c0-8.6,6.9-15.5,15.5-15.5h909.4c8.6,0,15.5,6.9,15.5,15.5
			C2526.3,1287.8,2519.4,1294.8,2510.8,1294.8z"/>
	</g>
	<g>
		<path class="st1" d="M1458,1294.8h-251.4c-8.6,0-15.5-6.9-15.5-15.5c0-8.6,6.9-15.5,15.5-15.5H1458c8.6,0,15.5,6.9,15.5,15.5
			C1473.5,1287.8,1466.5,1294.8,1458,1294.8z"/>
	</g>
	<g>
		<path class="st1" d="M2947.2,1423.9h-191.1c-8.6,0-15.5-6.9-15.5-15.5s6.9-15.5,15.5-15.5h191.1c8.6,0,15.5,6.9,15.5,15.5
			S2955.8,1423.9,2947.2,1423.9z"/>
	</g>
	<g>
		<path class="st1" d="M2639.1,1423.9H1497c-8.6,0-15.5-6.9-15.5-15.5s6.9-15.5,15.5-15.5h1142.1c8.6,0,15.5,6.9,15.5,15.5
			S2647.6,1423.9,2639.1,1423.9z"/>
	</g>
	<g>
		<path class="st1" d="M1338.5,1423.9h-131.9c-8.6,0-15.5-6.9-15.5-15.5s6.9-15.5,15.5-15.5h131.9c8.6,0,15.5,6.9,15.5,15.5
			S1347.1,1423.9,1338.5,1423.9z"/>
	</g>
	<g>
		<path class="st1" d="M2947.2,1553H1206.6c-8.6,0-15.5-6.9-15.5-15.5c0-8.6,6.9-15.5,15.5-15.5h1740.6c8.6,0,15.5,6.9,15.5,15.5
			C2962.7,1546.1,2955.8,1553,2947.2,1553z"/>
	</g>
	<g>
		<path class="st1" d="M2947.2,1682.2H1475.2c-8.6,0-15.5-6.9-15.5-15.5s6.9-15.5,15.5-15.5h1472.1c8.6,0,15.5,6.9,15.5,15.5
			S2955.8,1682.2,2947.2,1682.2z"/>
	</g>
	<g>
		<path class="st1" d="M1338.5,1682.2h-131.9c-8.6,0-15.5-6.9-15.5-15.5s6.9-15.5,15.5-15.5h131.9c8.6,0,15.5,6.9,15.5,15.5
			S1347.1,1682.2,1338.5,1682.2z"/>
	</g>
	<g>
		<path class="st1" d="M2947.2,1811.3h-111c-8.6,0-15.5-6.9-15.5-15.5c0-8.6,6.9-15.5,15.5-15.5h111c8.6,0,15.5,6.9,15.5,15.5
			C2962.7,1804.4,2955.8,1811.3,2947.2,1811.3z"/>
	</g>
	<g>
		<path class="st1" d="M2725.1,1811.3H1206.6c-8.6,0-15.5-6.9-15.5-15.5c0-8.6,6.9-15.5,15.5-15.5h1518.5c8.6,0,15.5,6.9,15.5,15.5
			C2740.6,1804.4,2733.7,1811.3,2725.1,1811.3z"/>
	</g>
	<g>
		<path class="st1" d="M2947.2,1940.4H1206.6c-8.6,0-15.5-6.9-15.5-15.5c0-8.6,6.9-15.5,15.5-15.5h1740.6c8.6,0,15.5,6.9,15.5,15.5
			C2962.7,1933.5,2955.8,1940.4,2947.2,1940.4z"/>
	</g>
	<g>
		<path class="st1" d="M2947.2,2069.5h-125.3c-8.6,0-15.5-6.9-15.5-15.5c0-8.6,6.9-15.5,15.5-15.5h125.3c8.6,0,15.5,6.9,15.5,15.5
			C2962.7,2062.6,2955.8,2069.5,2947.2,2069.5z"/>
	</g>
	<g>
		<path class="st1" d="M2690.4,2069.5H1544.1c-8.6,0-15.5-6.9-15.5-15.5c0-8.6,6.9-15.5,15.5-15.5h1146.3c8.6,0,15.5,6.9,15.5,15.5
			C2705.9,2062.6,2698.9,2069.5,2690.4,2069.5z"/>
	</g>
	<g>
		<path class="st1" d="M1354.7,2069.5h-148.1c-8.6,0-15.5-6.9-15.5-15.5c0-8.6,6.9-15.5,15.5-15.5h148.1c8.6,0,15.5,6.9,15.5,15.5
			C1370.2,2062.6,1363.2,2069.5,1354.7,2069.5z"/>
	</g>
	<g>
		<path class="st1" d="M2947.2,2198.7h-279.6c-8.6,0-15.5-6.9-15.5-15.5s6.9-15.5,15.5-15.5h279.6c8.6,0,15.5,6.9,15.5,15.5
			S2955.8,2198.7,2947.2,2198.7z"/>
	</g>
	<g>
		<path class="st1" d="M2449.7,2198.7H1206.6c-8.6,0-15.5-6.9-15.5-15.5s6.9-15.5,15.5-15.5h1243.1c8.6,0,15.5,6.9,15.5,15.5
			S2458.2,2198.7,2449.7,2198.7z"/>
	</g>
</g>
<g class="st2">
	<path class="st3" d="M964,3461.6c367.3,94.9,1820.6,94.9,2188,0c34-8.8,25.7-48.1-10.1-48.1H974.1
		C938.3,3413.5,930,3452.9,964,3461.6z"/>
</g>
<g>
	<path class="st3" d="M1066.8,3408.3c41.3-8.1,82.6-10.2,123.9-11.1c41.3-1.1,82.6-0.5,123.9,0.1c41.3,0.5,82.6,0.6,123.9,0.5h123.9
		h495.6h495.6h247.8l61.9,0c20.6,0,41.3-0.7,61.9-1c41.3-0.2,82.6,0.3,123.9,11.5c2.9,0.8,4.6,3.8,3.8,6.7c-0.5,1.9-2,3.3-3.8,3.8
		c-41.3,11.3-82.6,11.7-123.9,11.5c-20.6-0.3-41.3-1.1-61.9-1l-61.9,0h-247.8h-495.6h-495.6h-123.9c-41.3-0.1-82.6,0-123.9,0.5
		c-41.3,0.6-82.6,1.2-123.9,0.1c-41.3-0.9-82.6-3-123.9-11.1c-2.9-0.6-4.8-3.4-4.2-6.3C1063,3410.3,1064.7,3408.7,1066.8,3408.3z"/>
</g>
<g>
	<g>
		<path class="st4" d="M2568.8,3301.5l6.5-0.8c182-21.6,306.5-194.2,269.7-373.7l-68.4-333.2c-31.2-152-165-261.2-320.2-261.2
			h-397.8h11.3h-397.8c-155.2,0-289,109.1-320.2,261.2l-68.4,333.2c-36.8,179.5,87.7,352.1,269.7,373.7l6.5,0.8H2568.8z"/>
	</g>
	<g>
		<path class="st3" d="M2568.9,3304H1559.8l-6.8-0.8c-87.4-10.4-167.1-57.3-218.6-128.7c-51.5-71.4-70.9-161.8-53.2-248l68.4-333.2
			c31.3-152.5,167-263.2,322.7-263.2h784.3c155.7,0,291.4,110.7,322.6,263.2l68.4,333.2c17.7,86.2-1.7,176.6-53.2,248
			c-51.5,71.4-131.2,118.3-218.6,128.7L2568.9,3304z M1672.1,2335.2c-153.3,0-286.9,109-317.7,259.2l-68.4,333.2
			c-17.4,84.9,1.7,173.8,52.4,244.1c50.7,70.3,129.1,116.4,215.2,126.7l6.5,0.8l1008.6,0l6.4-0.8c86-10.2,164.5-56.4,215.1-126.7
			c50.7-70.3,69.8-159.2,52.4-244.1l-68.4-333.2c-30.8-150.2-164.4-259.2-317.7-259.2H1672.1z"/>
	</g>
</g>
<g class="st2">
	<path class="st3" d="M2575.3,3300.8l-6.5,0.8h-1009l-6.5-0.8c-116.4-13.8-209.3-89.5-251.6-189.2c46.2,41.5,105.3,69.8,172.1,77.8
		l6.5,0.8h1009l6.5-0.8c182-21.6,306.5-194.2,269.7-373.7l-68.3-333.2c-4.6-22.4-11.4-43.8-20.2-64.1
		c49.6,45.2,85.4,105.8,99.7,175.5L2845,2927C2881.8,3106.5,2757.2,3279.1,2575.3,3300.8z"/>
</g>
<g class="st5">
	<path class="st6" d="M2617.7,2375.2c-37.3-14.7-77.7-22.7-119.7-22.7h-784.3c-155.2,0-289,109.1-320.2,261.2l-68.4,333.2
		c-28.1,136.9,37.7,269.8,151.2,334.7c-138.5-53.9-224.2-201.8-192.8-354.6l68.4-333.2c31.2-152,165-261.2,320.2-261.2h784.3
		C2514.6,2332.7,2569.8,2348,2617.7,2375.2z"/>
</g>
<g>
	<path class="st3" d="M2568.8,3317.8h-1009c-0.6,0-1.3,0-1.9-0.1l-6.5-0.8c-91.2-10.8-174.4-59.8-228.2-134.3
		c-53.8-74.5-74-168.9-55.5-258.9l68.4-333.2c32.6-158.9,174-274.2,336.1-274.2h784.3c162.2,0,303.5,115.3,336.1,274.2l68.4,333.2
		c18.5,90-1.8,184.4-55.5,258.9s-136.9,123.5-228.2,134.3l-6.5,0.8C2570.1,3317.7,2569.4,3317.8,2568.8,3317.8z M1560.7,3285.3
		h1007.1l5.6-0.7c82.2-9.8,157.2-53.9,205.6-121c48.4-67.1,66.7-152.2,50-233.3l-68.4-333.2c-29.5-143.8-157.5-248.2-304.3-248.2
		h-784.3c-146.8,0-274.8,104.4-304.3,248.2l-68.4,333.2c-16.6,81.1,1.6,166.1,50,233.3c48.5,67.1,123.4,111.3,205.6,121
		L1560.7,3285.3z"/>
</g>
<g>
	<path class="st4" d="M2643.6,2086.6c-1,3.8-2,7.6-3,11.4c-0.8,2.9-1.6,5.7-2.4,8.5c-0.3,1.1-0.6,2.1-1,3.2
		c-0.7,2.3-1.4,4.7-2.1,6.9c-0.9,3-1.9,5.9-2.9,8.8c-0.4,1.3-0.9,2.6-1.3,3.9c-1.4,4.2-2.9,8.4-4.4,12.5c-1.6,4.6-3.4,9.1-5.2,13.5
		c-1.7,4.5-3.6,8.9-5.5,13.4c-1.8,4.4-3.8,8.8-5.8,13.2c-1.9,4.2-3.8,8.4-5.9,12.6c-0.3,0.5-0.5,1.1-0.8,1.6
		c-1.8,3.9-3.8,7.8-5.8,11.6c-0.1,0.1-0.1,0.2-0.2,0.3c-2.2,4.3-4.4,8.5-6.7,12.7c-2.7,5-5.5,9.9-8.4,14.8c-2,3.4-4,6.8-6,10.1
		c-0.1,0.1-0.2,0.2-0.2,0.3c-2.5,4.1-5,8.2-7.6,12.3c-4.3,6.8-8.8,13.5-13.4,20.2c-2,2.9-4.1,5.8-6.1,8.7c-1.7,2.4-3.5,4.8-5.3,7.3
		c-2.7,3.6-5.4,7.2-8.1,10.8c-2.7,3.5-5.3,6.8-8,10.2c-1.5,1.9-3,3.8-4.6,5.6c-1,1.2-2,2.4-2.9,3.6c-1.8,2.2-3.6,4.3-5.5,6.5
		c-5,5.9-10.1,11.7-15.3,17.4c-2.5,2.8-5.1,5.6-7.7,8.4c-1.9,2-3.8,4.1-5.7,6.1c-2.7,2.8-5.4,5.6-8.1,8.3c-3.9,4-7.9,7.9-11.9,11.8
		c-3.3,3.1-6.5,6.2-9.8,9.3c-0.5,0.5-1,1-1.5,1.4c-3.4,3.2-6.8,6.3-10.2,9.4c-6.3,5.7-12.8,11.2-19.4,16.7c-1.6,1.4-3.3,2.7-4.9,4.1
		c-3.3,2.7-6.7,5.4-10.1,8.1c-11.8,9.4-23.9,18.4-36.3,27.2c-0.2,0.2-0.5,0.3-0.7,0.5c-48.2,33.9-100.6,59.2-155.1,75.7
		c-18.9,5.7-38,10.5-57.3,14.2c-85.5,16.3-174.1,12-258-12.7c-56.4-16.6-110.7-42.5-160.5-77.6c-3.9-2.8-7.8-5.6-11.7-8.4
		c-0.4-0.3-0.8-0.6-1.2-0.9c-3.9-2.9-7.7-5.7-11.5-8.6c-4-3-7.9-6.1-11.9-9.3h-0.1c-3.9-3.1-7.8-6.3-11.6-9.4
		c-3.9-3.2-7.7-6.5-11.5-9.7c-3.8-3.3-7.5-6.5-11.2-9.8c-3.7-3.4-7.4-6.7-11.1-10.1c-3.6-3.4-7.2-6.8-10.8-10.2
		c-3.6-3.4-7.1-6.9-10.6-10.4c-3.5-3.5-6.9-7-10.4-10.6c-3.4-3.6-6.8-7.3-10.2-11c-3.3-3.6-6.5-7.2-9.7-10.8c-2.5-2.8-5-5.7-7.4-8.6
		c-7.1-8.4-14-17-20.8-25.7c-2.7-3.6-5.5-7.2-8.1-10.8c-0.4-0.4-0.7-0.9-1-1.4c-1.8-2.4-3.6-4.9-5.4-7.4c-4-5.6-7.9-11.3-11.7-17
		c-2.1-3.1-4.2-6.3-6.2-9.5c-3.1-4.8-6.1-9.7-9.1-14.6c-2.1-3.5-4.2-7-6.2-10.5c-2.8-4.9-5.6-10-8.4-15c-2-3.8-4-7.6-6-11.4
		c-2-3.9-4-7.8-5.8-11.7c-0.3-0.5-0.6-1.1-0.8-1.6c-4.1-8.4-8-16.9-11.6-25.5c-0.2-0.4-0.4-0.7-0.5-1.1c-1.8-4.2-3.5-8.5-5.2-12.7
		c-1.8-4.4-3.5-8.9-5.2-13.5c-1.7-4.5-3.3-9.1-4.8-13.6c-1.1-3.4-2.3-6.8-3.4-10.2c-0.9-2.7-1.7-5.4-2.5-8.1
		c-0.4-1.2-0.8-2.4-1.1-3.6c-0.8-2.7-1.6-5.3-2.3-7.9c-1.1-3.9-2.1-7.8-3.1-11.8c-40.6-286.3,219.8-603.8,479.9-740
		c66.2-34.7,145.3-34.7,211.5,0c5.9,3,11.7,6.3,17.5,9.7l0.1,0.1C2435.4,1502.4,2683.2,1806.7,2643.6,2086.6z"/>
</g>
<g>
	<g class="st7">
		<path class="st3" d="M2158,2549c7.4-1.9,14.7-3.9,22-6.2c54.4-16.5,106.9-41.8,155.1-75.7c0.2-0.2,0.5-0.3,0.7-0.5
			c12.4-8.7,24.5-17.8,36.3-27.2c3.4-2.7,6.8-5.4,10.1-8.1c1.7-1.4,3.3-2.8,4.9-4.1c6.6-5.5,13-11,19.4-16.7
			c3.5-3.1,6.9-6.2,10.2-9.4c0.5-0.4,1-0.9,1.5-1.4c3.3-3,6.6-6.1,9.8-9.3c4-3.9,8-7.9,11.9-11.8c2.8-2.7,5.4-5.5,8.1-8.3
			c1.9-2,3.8-4.1,5.7-6.1c2.6-2.8,5.2-5.5,7.7-8.4c5.2-5.7,10.3-11.6,15.3-17.4c1.8-2.2,3.6-4.3,5.5-6.5c1-1.2,2-2.4,2.9-3.6
			c1.5-1.8,3-3.7,4.6-5.6c2.7-3.4,5.4-6.8,8-10.2c2.7-3.6,5.4-7.2,8.1-10.8c1.8-2.4,3.5-4.8,5.3-7.3c2.1-2.9,4.1-5.7,6.1-8.7
			c4.6-6.7,9.1-13.4,13.4-20.2c2.6-4.1,5.1-8.1,7.6-12.3c0-0.1,0.1-0.2,0.2-0.3c2-3.4,4-6.7,6-10.1c2.9-4.9,5.6-9.8,8.4-14.8
			c2.3-4.2,4.5-8.4,6.7-12.7c0.1-0.1,0.1-0.2,0.2-0.3c2-3.8,4-7.7,5.8-11.6c0.3-0.5,0.5-1.1,0.8-1.6c2-4.2,4-8.4,5.9-12.6
			c2-4.3,4-8.8,5.8-13.2c1.9-4.4,3.7-8.9,5.5-13.4c1.8-4.4,3.5-8.9,5.2-13.5c1.6-4.1,3-8.3,4.4-12.5c0.4-1.2,0.9-2.5,1.3-3.9
			c1-2.9,2-5.9,2.9-8.8c0.7-2.3,1.5-4.6,2.1-6.9c0.4-1.1,0.7-2.1,1-3.2c0.8-2.8,1.6-5.6,2.4-8.5c1-3.7,2.1-7.6,3-11.4
			c39.2-276.4-202.1-576.8-453-724.8c176.5,160.5,310,385.4,280.1,596.4c-1,3.8-2,7.6-3,11.4c-0.8,2.9-1.6,5.7-2.4,8.5
			c-0.3,1.1-0.6,2.1-1,3.2c-0.7,2.3-1.4,4.7-2.1,6.9c-0.9,3-1.9,5.9-2.9,8.8c-0.4,1.3-0.9,2.6-1.3,3.9c-1.4,4.2-2.9,8.4-4.4,12.5
			c-1.6,4.6-3.4,9.1-5.2,13.5c-1.7,4.5-3.6,8.9-5.5,13.4c-1.8,4.4-3.8,8.8-5.8,13.2c-1.9,4.2-3.8,8.4-5.9,12.6
			c-0.3,0.5-0.5,1.1-0.8,1.6c-1.8,3.9-3.8,7.8-5.8,11.6c-0.1,0.1-0.1,0.2-0.2,0.3c-2.2,4.3-4.4,8.5-6.7,12.7
			c-2.7,5-5.5,9.9-8.4,14.8c-2,3.4-4,6.8-6,10.1c-0.1,0.1-0.2,0.2-0.2,0.3c-2.5,4.1-5,8.2-7.6,12.3c-4.3,6.8-8.8,13.5-13.4,20.2
			c-2,2.9-4.1,5.8-6.1,8.7c-1.7,2.4-3.5,4.8-5.3,7.3c-2.7,3.6-5.4,7.2-8.1,10.8c-2.7,3.5-5.3,6.8-8,10.2c-1.5,1.9-3,3.8-4.6,5.6
			c-1,1.2-2,2.4-2.9,3.6c-1.8,2.2-3.6,4.3-5.5,6.5c-5,5.9-10.1,11.7-15.3,17.4c-2.5,2.8-5.1,5.6-7.7,8.4c-1.9,2-3.8,4.1-5.7,6.1
			c-2.7,2.8-5.4,5.6-8.1,8.3c-3.9,4-7.9,7.9-11.9,11.8c-3.3,3.1-6.5,6.2-9.8,9.3c-0.5,0.5-1,1-1.5,1.4c-3.4,3.2-6.8,6.3-10.2,9.4
			c-6.3,5.7-12.8,11.2-19.4,16.7c-1.6,1.4-3.3,2.7-4.9,4.1c-3.3,2.7-6.7,5.4-10.1,8.1c-11.8,9.4-23.9,18.4-36.3,27.2
			c-0.2,0.2-0.5,0.3-0.7,0.5c-48.2,33.9-100.6,59.2-155.1,75.7c-18.9,5.7-38,10.5-57.3,14.2c-32.1,6.1-64.6,9.3-97.1,9.6
			c32.5-0.3,65-3.5,97.1-9.6c0.9-0.2,1.8-0.4,2.8-0.6c-11.7,3-23.5,5.7-35.3,8c-70.7,13.5-143.6,12.8-214.2-1.8
			c-0.8-0.6-1.6-1.3-2.5-1.9c3.9,3.1,7.8,6.1,11.7,9.1c3.8,2.9,7.6,5.7,11.5,8.6c0.4,0.3,0.8,0.5,1.2,0.9c3.9,2.8,7.8,5.6,11.7,8.4
			c49.8,35.1,104.1,61,160.5,77.6c83.9,24.7,172.5,29,258,12.7c10.1-1.9,20.1-4.2,30.1-6.6C2176.3,2545.1,2167.2,2547.2,2158,2549z"
			/>
	</g>
</g>
<g class="st5">
	<path class="st6" d="M2274.3,1420.4c-20-13.6-40.2-26.2-60.5-37.8l-0.1-0.1c-5.9-3.4-11.7-6.6-17.5-9.7
		c-66.2-34.7-145.3-34.7-211.5,0c-260.1,136.2-520.5,453.7-479.9,740c1,4,2.1,7.9,3.1,11.8c0.7,2.7,1.5,5.3,2.3,7.9
		c0.3,1.2,0.7,2.4,1.1,3.6c0.8,2.7,1.6,5.4,2.5,8.1c1.1,3.4,2.2,6.8,3.4,10.2c1.5,4.6,3.1,9.1,4.8,13.6c1.6,4.6,3.4,9.1,5.2,13.5
		c1.7,4.3,3.4,8.5,5.2,12.7c0.1,0.4,0.3,0.7,0.5,1.1c3.6,8.6,7.4,17.1,11.6,25.5c0.2,0.5,0.5,1.1,0.8,1.6c1.8,3.9,3.8,7.8,5.8,11.7
		c2,3.8,4,7.6,6,11.4c2.8,5,5.5,10.1,8.4,15c2.1,3.5,4.2,7,6.2,10.5c3,4.9,6,9.8,9.1,14.6c2,3.2,4.1,6.4,6.2,9.5
		c3.8,5.7,7.7,11.4,11.7,17c1.7,2.5,3.5,5,5.4,7.4c0.3,0.4,0.7,0.9,1,1.4c2.6,3.6,5.4,7.2,8.1,10.8c6.7,8.7,13.7,17.3,20.8,25.7
		c2.4,2.9,4.9,5.7,7.4,8.6c3.2,3.7,6.4,7.3,9.7,10.8c3.4,3.7,6.8,7.3,10.2,11c3.4,3.6,6.9,7.1,10.4,10.6c3.5,3.5,7,7,10.6,10.4
		c3.6,3.5,7.2,6.9,10.8,10.2c3.6,3.4,7.3,6.7,11.1,10.1c3.7,3.3,7.4,6.6,11.2,9.8s7.6,6.5,11.5,9.7c3.9,3.1,7.7,6.3,11.6,9.4h0.1
		c4,3.1,7.9,6.2,11.9,9.3c3.5,2.7,7.1,5.3,10.7,8c-4.5-2.9-8.9-6-13.4-9.1c-3.9-2.8-7.8-5.6-11.7-8.4c-0.4-0.3-0.8-0.6-1.2-0.9
		c-3.9-2.9-7.7-5.7-11.5-8.6c-4-3-7.9-6.1-11.9-9.3h-0.1c-3.9-3.1-7.8-6.3-11.6-9.4c-3.9-3.2-7.7-6.5-11.5-9.7
		c-3.8-3.3-7.5-6.5-11.2-9.8c-3.7-3.4-7.4-6.7-11.1-10.1c-3.6-3.4-7.2-6.8-10.8-10.2c-3.6-3.4-7.1-6.9-10.6-10.4
		c-3.5-3.5-6.9-7-10.4-10.6c-3.4-3.6-6.8-7.3-10.2-11c-3.3-3.6-6.5-7.2-9.7-10.8c-2.5-2.8-5-5.7-7.4-8.6c-7.1-8.4-14-17-20.8-25.7
		c-2.7-3.6-5.5-7.2-8.1-10.8c-0.4-0.4-0.7-0.9-1-1.4c-1.8-2.4-3.6-4.9-5.4-7.4c-4-5.6-7.9-11.3-11.7-17c-2.1-3.1-4.2-6.3-6.2-9.5
		c-3.1-4.8-6.1-9.7-9.1-14.6c-2.1-3.5-4.2-7-6.2-10.5c-2.8-4.9-5.6-10-8.4-15c-2-3.8-4-7.6-6-11.4c-2-3.9-4-7.8-5.8-11.7
		c-0.3-0.5-0.6-1.1-0.8-1.6c-4.1-8.4-8-16.9-11.6-25.5c-0.2-0.4-0.4-0.7-0.5-1.1c-1.8-4.2-3.5-8.5-5.2-12.7
		c-1.8-4.4-3.5-8.9-5.2-13.5c-1.7-4.5-3.3-9.1-4.8-13.6c-1.1-3.4-2.3-6.8-3.4-10.2c-0.9-2.7-1.7-5.4-2.5-8.1
		c-0.4-1.2-0.8-2.4-1.1-3.6c-0.8-2.7-1.6-5.3-2.3-7.9c-1.1-3.9-2.1-7.8-3.1-11.8c-40.6-286.3,219.8-603.9,479.9-740
		c66.2-34.7,145.3-34.7,211.5,0c5.9,3,11.7,6.3,17.5,9.7l0.1,0.1C2216.1,1380.4,2245.5,1399.5,2274.3,1420.4z"/>
</g>
<g>
	<path class="st3" d="M2057.9,2575.4c-114,0-228-34.3-325.2-102.9c-4-2.8-7.9-5.7-11.9-8.5c-0.2-0.1-0.4-0.3-0.6-0.5
		c-0.3-0.2-0.5-0.4-0.8-0.6c-4.1-3.1-7.9-5.9-11.6-8.7c-3.8-2.9-7.6-5.9-11.4-8.9c-0.3-0.2-0.6-0.4-0.9-0.7
		c-3.8-3.1-7.6-6.1-11.3-9.2c-4.4-3.6-8.3-6.9-12.1-10.2c-3.9-3.3-7.7-6.7-11.5-10.1l-0.5-0.5c-3.7-3.3-7.3-6.5-10.8-9.9
		c-3.6-3.4-7.3-6.9-11-10.4c-3.6-3.4-7.3-7-10.8-10.7c-3.7-3.7-7.1-7.2-10.5-10.8c-3.5-3.7-7-7.4-10.4-11.1
		c-3.4-3.8-6.7-7.5-10-11.2c-2.5-2.8-5-5.7-7.5-8.7c-7.4-8.8-14.6-17.6-21.2-26.3l-1.8-2.4c-2.1-2.8-4.2-5.6-6.3-8.4
		c-0.4-0.5-0.7-0.9-1.1-1.4c-2-2.7-3.9-5.3-5.8-8c-4.4-6.1-8.3-11.8-11.9-17.4c-2.1-3.2-4.4-6.5-6.4-9.9c-3.1-4.8-6.2-9.8-9.3-14.8
		l-1.9-3.2c-1.5-2.5-3-5-4.4-7.5c-2.8-4.9-5.5-9.8-8.1-14.6l-0.4-0.8c-2.2-4.1-4.2-7.9-6.2-11.8c-2-3.8-3.9-7.7-5.8-11.6
		c-0.4-0.8-0.9-1.6-1.2-2.5c-4.4-9.1-8.1-17.3-11.4-25.2c-0.3-0.6-0.7-1.4-1-2.3c-1.8-4.2-3.5-8.4-5.1-12.6c-1.8-4.5-3.6-9.2-5.3-14
		c-1.7-4.5-3.4-9.2-4.9-13.9c-1.1-3.4-2.3-6.9-3.4-10.4c-0.9-2.8-1.7-5.6-2.6-8.4c-0.4-1.2-0.8-2.6-1.2-4c-0.7-2.4-1.6-5.2-2.3-8.1
		c-1.1-3.8-2.1-7.8-3.2-11.8c-0.2-0.6-0.3-1.2-0.4-1.8c-24.6-173.4,57.1-333.8,130-437.9c92.1-131.5,222.7-247.7,358.5-318.8
		c70.9-37.2,155.6-37.2,226.6,0c135.8,71.1,266.4,187.3,358.5,318.8c72.9,104.1,154.5,264.5,130,437.9c-0.1,0.6-0.2,1.2-0.4,1.8
		c-1,3.9-2.1,7.8-3.1,11.6l-2.8,9.7c-0.2,0.8-0.5,1.7-0.8,2.5c-0.5,1.7-1,3.4-1.6,5.1l-0.6,1.8c-0.9,2.9-1.8,5.7-2.8,8.5l-0.2,0.6
		c-0.5,1.4-0.9,2.8-1.4,4.1c-1.4,4.2-3,8.6-4.6,13c-1.6,4.4-3.4,9.1-5.3,13.8c-1.7,4.4-3.6,9.1-5.6,13.7c-1.9,4.5-3.9,9.1-6,13.6
		c-1.9,4.2-3.9,8.5-6,12.8l-0.9,1.9c-1.8,3.7-3.8,7.8-5.9,11.8c-2.3,4.6-4.6,8.9-6.9,13.2c-2.8,5.2-5.7,10.3-8.7,15.3
		c-1.9,3.3-4,6.8-6,10.2c0,0,0,0.1-0.1,0.1c0,0.1-0.1,0.2-0.1,0.2c-2.6,4.2-5.2,8.4-7.9,12.6c-4.8,7.5-9.3,14.2-13.7,20.7
		c-2,3-4.2,5.9-6.3,8.9c-1.8,2.5-3.5,4.9-5.4,7.4c-2.7,3.7-5.5,7.4-8.2,11c-2.8,3.6-5.5,7.1-8.3,10.5c-1.6,2-3.2,4-4.7,5.9
		l-8.6,10.3c-5.1,6-10.4,12-15.6,17.8c-2.4,2.7-5,5.5-7.7,8.3l-6,6.3c-3,3.1-5.7,5.9-8.6,8.7c-3.8,3.8-7.9,7.9-12,11.9
		c-3.3,3.2-6.6,6.3-9.9,9.4c-0.6,0.6-1.2,1.2-1.9,1.7c-3.4,3.2-6.8,6.3-10.3,9.4c-6.7,6-13.4,11.7-19.7,17l-4.9,4.1
		c-3.5,2.9-7,5.7-10.4,8.4c-12,9.5-24.4,18.8-37,27.7c-0.1,0.1-0.4,0.3-0.6,0.4c0,0-0.1,0.1-0.1,0.1
		C2285.3,2541.2,2171.6,2575.4,2057.9,2575.4z M1740.4,2437.9c3.7,2.7,7.5,5.4,11.2,8c183,129.1,429,129.3,612.2,0.5v0
		c0.3-0.2,0.5-0.4,0.7-0.5c12.1-8.5,24-17.5,35.5-26.6c3.3-2.7,6.6-5.3,9.9-8l4.8-4c6.1-5.1,12.5-10.6,19-16.4c3.3-3,6.6-5.9,9.8-9
		c0.3-0.3,0.6-0.5,0.9-0.8l0.3-0.3c0.2-0.2,0.3-0.3,0.5-0.5c3.2-2.9,6.4-5.9,9.5-9c3.9-3.8,7.8-7.7,11.7-11.5c2.8-2.8,5.3-5.4,7.9-8
		l5.7-6.1c2.6-2.8,5-5.3,7.3-8c5.2-5.7,10.2-11.5,15.1-17.2l8.2-9.8c1.5-1.9,3-3.7,4.5-5.5c2.6-3.3,5.2-6.6,7.8-10
		c2.6-3.4,5.3-7,7.9-10.5c1.7-2.4,3.4-4.7,5.1-7.1c2-2.8,4-5.6,6-8.4c4.3-6.2,8.5-12.6,13.1-19.7c2.5-3.9,5-7.9,7.4-11.9
		c0-0.1,0.1-0.1,0.1-0.2l0,0c2-3.3,3.9-6.6,5.8-9.9c2.9-4.9,5.6-9.7,8.2-14.5c2.2-4.1,4.3-8.1,6.5-12.3c0-0.1,0.2-0.4,0.3-0.5
		c1.9-3.7,3.8-7.3,5.5-11l1-2c1.8-3.8,3.7-7.8,5.5-11.9c2-4.3,3.9-8.6,5.7-12.8c1.9-4.3,3.6-8.6,5.3-12.9c1.8-4.5,3.5-8.8,5-13.1
		c1.6-4.2,3-8.2,4.3-12.2l1.5-4.5c0.9-2.6,1.7-5.2,2.6-7.9l0.6-1.9c0.5-1.5,1-3,1.4-4.6c0.1-0.3,0.2-0.7,0.3-1
		c0.2-0.5,0.3-0.9,0.4-1.3l2.7-9.4c0.9-3.3,1.8-6.7,2.7-10.1c17.7-126.9-26.5-273.8-124.5-413.8
		c-89.2-127.4-215.6-239.9-346.9-308.6c-61.5-32.2-134.9-32.2-196.4,0c-131.3,68.7-257.8,181.2-346.9,308.6
		c-98,140-142.2,286.9-124.5,413.8c0.9,3.6,1.9,7.1,2.8,10.6c0.7,2.7,1.4,5.1,2.2,7.5c0.4,1.4,0.7,2.5,1,3.5
		c0.9,2.8,1.6,5.5,2.5,8.1c1.1,3.3,2.2,6.7,3.3,9.9c1.5,4.4,3,8.8,4.7,13.1c1.6,4.6,3.3,8.9,5,13.1c1.7,4.3,3.4,8.4,5.1,12.5
		c0,0.1,0.1,0.2,0.1,0.2c0.2,0.3,0.3,0.6,0.4,0.9c3.2,7.7,6.9,15.7,11.2,24.7c0.1,0.2,0.2,0.4,0.3,0.7c0.2,0.4,0.4,0.7,0.6,1.1
		c1.8,3.7,3.6,7.4,5.5,11.1c2,3.8,3.9,7.6,5.9,11.3l0.3,0.6c2.6,4.7,5.2,9.4,7.8,14c1.3,2.3,2.8,4.7,4.2,7.1l1.9,3.2
		c2.8,4.7,5.8,9.4,8.8,14.1c2,3.2,4,6.2,6,9.2c3.5,5.3,7.2,10.7,11.5,16.7c1.7,2.5,3.4,4.8,5.1,7c0.1,0.1,0.4,0.6,0.5,0.7l-0.2-0.2
		c0.4,0.4,0.7,0.8,1,1.3c2,2.7,4,5.4,6.1,8.1l1.8,2.3c6.3,8.1,13.1,16.6,20.2,25c2.4,2.8,4.8,5.6,7.2,8.3c3.2,3.7,6.3,7.2,9.5,10.7
		c3.3,3.5,6.7,7.1,10.1,10.8c3.2,3.4,6.5,6.7,9.9,10.1c3.6,3.6,7,7,10.4,10.3c3.6,3.5,7.1,6.8,10.6,10.1c3.5,3.3,6.9,6.3,10.4,9.5
		l0.5,0.5c3.6,3.2,7.2,6.4,10.9,9.6c3.7,3.2,7.4,6.4,11.2,9.5c3.8,3.1,7.2,5.9,10.7,8.7c0.2,0.2,0.5,0.4,0.7,0.6
		c3.9,3.1,7.8,6.1,11.7,9.1c3.5,2.7,7.2,5.4,10.9,8.2C1739.2,2437,1739.8,2437.4,1740.4,2437.9z M1719.9,2463.2
		C1719.9,2463.2,1719.9,2463.2,1719.9,2463.2C1719.9,2463.2,1719.9,2463.2,1719.9,2463.2z M2444.7,2380.8c0,0-0.1,0.1-0.1,0.1
		C2444.6,2380.9,2444.7,2380.9,2444.7,2380.8z M1515.5,2163.7C1515.5,2163.7,1515.5,2163.7,1515.5,2163.7
		C1515.5,2163.7,1515.5,2163.7,1515.5,2163.7z M1514.5,2161.2C1514.5,2161.2,1514.5,2161.2,1514.5,2161.2
		C1514.5,2161.2,1514.5,2161.2,1514.5,2161.2z M2643.6,2086.6L2643.6,2086.6L2643.6,2086.6z"/>
</g>
<g>
	<g>
		<g>
			<path class="st8" d="M2513.6,2168.8c-1,3-2.1,6.1-3.2,9.3c-30.2,77.2-89.3,118.4-125.1,71.8l21.4-104.9l14.5-71.3
				C2477.1,2035.5,2551.6,2052.6,2513.6,2168.8z"/>
		</g>
		<g>
			<path class="st3" d="M2421.1,2271.5c-14.2,0-27-7-37.4-20.4l-0.5-0.7l36.2-177.8l0.6-0.4c30.5-20.8,64.8-24.4,85.4-9
				c13.4,10.1,32.5,37.2,9.9,106.3l0,0c-1,3.1-2.1,6.2-3.2,9.4c-20.2,51.6-53.4,87.8-84.7,92.3
				C2425.4,2271.3,2423.3,2271.5,2421.1,2271.5z M2387.4,2249.4c10.9,13.8,24.5,19.9,39.6,17.8c29.9-4.3,62-39.5,81.6-89.8
				c1.1-3.1,2.2-6.2,3.2-9.2l0,0c16.2-49.5,13.1-85.7-8.6-102c-19.1-14.3-51.3-10.8-80.2,8.7L2387.4,2249.4z"/>
		</g>
	</g>
	<g class="st2">
		<path class="st3" d="M2513.6,2168.8c-1,3-2.1,6.1-3.2,9.3c-30.2,77.2-89.3,118.4-125.1,71.8l21.4-104.9c5-0.4,8-0.6,8-0.6
			c21.7,67.9,53.3,74,94.6,18.1C2509.3,2162.5,2510.9,2164.8,2513.6,2168.8z"/>
	</g>
	<g>
		<path class="st3" d="M2421.2,2282.6c-17.6,0-33.8-8.6-46.2-24.7c-2.3-3-3.2-6.9-2.4-10.6l35.9-176.2c0.7-3.3,2.6-6.3,5.4-8.2
			c34.8-23.8,74.6-27.1,99-8.2c16.4,12.7,39.4,46.1,9.8,127.8c-22,56.4-57.8,94.4-93.5,99.5
			C2426.5,2282.4,2423.8,2282.6,2421.2,2282.6z M2399.4,2246.3c7.7,8,16.3,11.3,26.1,9.9c25.6-3.7,54.9-36.9,72.8-82.8
			c17.4-48,16.9-83.8-1.4-98c-14.3-11.1-40.1-8.4-64,6.3L2399.4,2246.3z"/>
	</g>
	<g>
		<g>
			<path class="st8" d="M1602.4,2168.8c1,3,2.1,6.1,3.2,9.3c30.2,77.2,89.3,118.4,125.1,71.8l-21.4-104.9l-14.5-71.3
				C1638.9,2035.5,1564.4,2052.6,1602.4,2168.8z"/>
		</g>
		<g>
			<path class="st3" d="M1694.9,2272.2c-2.1,0-4.3-0.2-6.5-0.5c-31.6-4.5-65-40.9-85.3-92.7c-1.2-3.3-2.3-6.4-3.3-9.5v0
				c-22.7-69.5-3.3-97,10.2-107.2c20.8-15.6,55.5-12,86.3,9l0.9,0.6l36.4,178.5l-0.8,1C1722.3,2265.2,1709.3,2272.2,1694.9,2272.2z
				 M1604.9,2167.9c1,3,2.1,6.1,3.2,9.2c19.5,50,51.3,85,81,89.2c14.9,2.1,27.9-3.7,38.7-17.2l-35.4-173.9
				c-28.6-19.2-60.3-22.6-79.1-8.5C1591.8,2082.9,1588.9,2118.8,1604.9,2167.9L1604.9,2167.9z"/>
		</g>
	</g>
	<g class="st5">
		<path class="st6" d="M1682.4,2268.3c-27.6-9.2-56.1-42.6-74.2-88.9c-1.1-3.2-2.2-6.3-3.2-9.3c-37.9-116.1,36.5-133.3,92.4-95.1
			l0.3,1.3c-50.5-19.1-101.5,7.4-68.7,107.6c1,3,2.1,6.1,3.2,9.3C1645,2226.1,1663.1,2252.5,1682.4,2268.3z"/>
	</g>
	<g>
		<path class="st3" d="M1694.8,2282.6c-2.6,0-5.3-0.2-7.9-0.6c-35.7-5.1-71.5-43.1-93.4-99.2c-29.7-82-6.7-115.5,9.7-128.1
			c24.4-18.9,64.2-15.6,99,8.2c2.8,1.9,4.8,4.8,5.4,8.2l35.9,176.2c0.8,3.7-0.1,7.6-2.4,10.6
			C1728.6,2274,1712.4,2282.6,1694.8,2282.6z M1641.8,2068.5c-8.9,0-16.7,2.2-22.6,6.8c-18.3,14.2-18.7,50-1.2,98.3
			c17.8,45.6,47.1,78.9,72.7,82.5c9.8,1.4,18.4-1.8,26.1-9.9l-33.5-164.6C1669.1,2073,1654.4,2068.5,1641.8,2068.5z"/>
	</g>
	<g>
		<g>
			<path class="st8" d="M2413.3,2147.6v60.3c0,103.7-49.6,202.1-135.1,260.8c-1.2,0.8-2.4,1.6-3.6,2.4
				c-130.4,87.4-301.1,87.4-431.5,0c-1.2-0.8-2.4-1.7-3.6-2.5c-85.5-58.7-135.2-157.1-135.2-260.8v-60.3c0,0,0.2-3.9,0.7-10.8
				c3.2-55,17.8-302,20.1-308.3C1802.7,1619.6,2578.7,1670.8,2413.3,2147.6z"/>
		</g>
		<g>
			<path class="st3" d="M2058.8,2539.8c-75.6,0-151.2-22.1-217.2-66.3c-1.1-0.8-2.2-1.5-3.3-2.3c-85.7-58.8-136.7-157.2-136.7-263.3
				v-60.3c0-0.2,0.2-4,0.7-11c5.3-90.8,17.9-302.7,20.3-309.1c20.4-54.8,89.4-95.5,189.5-111.5c96.6-15.4,209.1-5,300.9,28
				c91.7,32.9,295,138.2,203.1,404v59.8c0,106.1-51,204.4-136.3,263.1l-1.4,0.9c-0.7,0.5-1.5,1-2.2,1.5
				C2210.1,2517.7,2134.5,2539.8,2058.8,2539.8z M2003.6,1714.5c-31,0-61.6,2.3-90.7,6.9c-98.1,15.7-165.6,55.1-185.3,108
				c-1.9,6.9-11.9,170-20,307.5c-0.4,7-0.7,10.8-0.7,10.8l0,60.1c0,104.4,50.1,201,134,258.6c1.5,1,2.6,1.7,3.6,2.5
				c130.1,87.2,298.3,87.2,428.5-0.1c0.7-0.5,1.5-1,2.2-1.5l1.4-0.9c83.9-57.6,134-154.3,134-258.6l0.1-61.2
				c90.7-261.5-109.4-365.2-199.6-397.6C2147.8,1726.4,2074.5,1714.5,2003.6,1714.5z"/>
		</g>
	</g>
	<g class="st2">
		<path class="st3" d="M2413.3,2147.6v60.3c0,103.7-49.6,202.1-135.1,260.8c-1.2,0.8-2.4,1.6-3.6,2.4
			c-130.4,87.4-301.1,87.4-431.5,0c-1.2-0.8-2.4-1.7-3.6-2.5c-2.7-1.9-5.4-3.8-8-5.7c122.7,59.7,269.8,50.8,385.2-26.6
			c1.2-0.8,2.4-1.6,3.6-2.4c85.5-58.7,135.1-157.1,135.1-260.8l5.2-76c56.1-161.8-1.3-258.9-97.9-329.1
			C2394,1832.8,2479.9,1955.8,2413.3,2147.6z"/>
	</g>
	<g class="st2">
		<path class="st3" d="M2413.3,2147.6v24.5c-39-57.4-46.5-214.2-46.5-214.2c-34.1,37-225.5,79.7-359.8,8.3
			c-7.2-3.8-15.2,3.8-11.6,11.2c1.6,3.3,2.3,4.4,2.3,4.4c-17.7,10.9-100.9,0.3-146-26c-12.6-7.3-28.6,0.6-30.8,15
			c-10.1,64.5-42.3,109.5-111,176.7c-1.7-3.6-3.4-7.2-4.9-10.8c3.2-55,17.8-302,20.1-308.3
			C1802.7,1619.6,2578.7,1670.8,2413.3,2147.6z"/>
	</g>
	<g class="st5">
		<path class="st6" d="M2205.9,2507.8c-117.9,48.3-254.4,36.2-362.9-36.5c-1.2-0.8-2.4-1.7-3.6-2.5
			c-85.5-58.7-135.2-157.1-135.2-260.8v-60.3c0,0,18.1-312,20.8-319.1c16.3-43.9,63.4-76.3,126.2-95.7
			c-47.2,19.7-81.9,48.2-95.4,84.6c-2.7,7.1-20.8,319.1-20.8,319.1v60.3c0,103.8,49.6,202.1,135.2,260.9c1.2,0.8,2.6,1.4,3.7,2.4
			C1958.6,2536.8,2095.6,2542.5,2205.9,2507.8z"/>
	</g>
	<g>
		<path class="st3" d="M2058.8,2550.2c-77.6,0-155.3-22.7-223-68.1c-1.2-0.8-2.5-1.7-3.8-2.5c-88.2-60.5-140.9-162.1-140.9-271.6
			v-60.3c0-0.3,0-0.5,0-0.8c18.3-313.8,20.8-320.7,21.6-322.9l0,0c47.8-128.5,316.9-156.7,503.7-89.6c89,32,156.4,82.6,194.8,146.6
			c45.3,75.2,50.3,165.7,15,268.9v58.1c0,109.5-52.6,211.1-140.8,271.6l-3.7,2.5C2214.1,2527.5,2136.5,2550.2,2058.8,2550.2z
			 M1717.3,2148v59.9c0,100.9,48.4,194.4,129.5,250.1c1.2,0.8,2.3,1.6,3.5,2.4c126.7,84.9,290.3,84.9,417,0l3.5-2.4
			c81.1-55.7,129.5-149.2,129.5-250.1v-60.3c0-1.5,0.2-2.9,0.7-4.3c87.7-252.8-106-353.1-193.3-384.4c-189.3-68-430.2-30.3-470,73.2
			C1735.3,1848.9,1724.3,2029,1717.3,2148z M1737.3,1833C1737.3,1833,1737.3,1833,1737.3,1833C1737.3,1833,1737.3,1833,1737.3,1833z
			 M1737.4,1832.8c0,0.1-0.1,0.2-0.1,0.2C1737.3,1832.9,1737.4,1832.9,1737.4,1832.8z M1725.1,1828.5L1725.1,1828.5L1725.1,1828.5z"
			/>
	</g>
	<g>
		<g>
			<path class="st9" d="M2409.3,1700.6c97.9,125.1,85.7,342.8,3.3,456.8c-63.1-34.8-67.3-199.4-67.3-199.4
				c-149.3,40.6-300.4,15.8-437.4-102.2c-2.9,46.4,35.9,89.4,35.9,89.4c-17.6-0.5-33.4-3.1-47.6-7.4c-49.6-14.8-79.1-50.7-97.1-95.9
				c-17.4,156.6-18.5,191.4-94.8,305.7c-76.1-163.2-90.2-364.4,36.8-424.6c-177-60.9-111.7-184.2,40.6-74.7
				c-74.7-107.3,19.6-148.7,39.2-30.5c110.1-201.1,593.9-130.5,659.5,97.9l-70.8-15.2C2409.3,1700.6,2409.3,1700.6,2409.3,1700.6z"
				/>
		</g>
		<g>
			<path class="st9" d="M2413.3,2161l-2.1-1.2c-59.4-32.8-67.6-173.7-68.5-198.3c-158.6,42.2-304,8.5-432.3-100
				c0.4,42.6,35,81.4,35.4,81.8l4.3,4.7l-6.3-0.2c-17.3-0.5-33.5-3-48.3-7.5c-42.9-12.8-74-41.6-94.8-87.9l-1,8.6
				c-15.5,140.3-19.6,177.9-93.1,288l-2.7,4l-2-4.4c-76.7-164.3-89.4-361.4,32.3-425.3c-71.5-25.9-99.6-60.9-101.9-85.4
				c-1.2-12.8,4.3-23.4,15.5-29.8c21-12,64.1-9.9,124.1,29.9c-25.1-41.1-24.4-70.9-15.3-84.5c5.3-8,13.7-11.4,22.8-9.5
				c15.3,3.3,34.1,22.4,42.9,65.9c60.6-100.6,206.7-122.9,325-109.7c141,15.7,299.5,88.1,335.8,214.6l1.2,4.3l-68.3-14.6
				c95,128.5,78.5,344.1-1.1,454.2L2413.3,2161z M2347.9,1954.4l0.1,3.5c0,1.6,4.8,159.8,63.8,195.9
				c78.5-110.9,93.3-326.5-4.6-451.6l-3.4-4.4l6.6,0.2l66,14.1c-38-121.4-192.3-191.1-329.9-206.4c-119-13.2-266.5,9.6-323.3,113.4
				l-3.8,6.9l-1.3-7.7c-7.6-46.1-26.3-65.8-40-68.8c-7-1.5-13,1-17.1,7.2c-9,13.5-8.4,45.2,22.9,90.1l9,13l-12.8-9.2
				c-63.9-46-109.8-49-129.7-37.6c-9.2,5.3-13.8,14-12.8,24.6c2.1,22.4,30.7,57.6,104.3,82.9l6.3,2.2l-6,2.8
				c-123.6,58.6-112.4,253-37.5,416.6c70.2-105.8,74.4-144,89.6-281.5l3.3-29.6l4,10c20.1,50.2,51.3,81.1,95.4,94.3
				c12.6,3.8,26.3,6.1,40.8,7c-10-12.6-35-48.2-32.6-86.6l0.3-5.4l4.1,3.6c128.8,110.9,275.1,145.1,435,101.6L2347.9,1954.4z"/>
		</g>
	</g>
	<g class="st2">
		<path class="st3" d="M1780.9,1814.7c6.5,12.5,12.4,26.6,16.3,43.4c-15.8,143.1-19.4,179.3-93,289.6c-8.6-18.5-16.4-37.4-23.3-56.6
			c60.4-93.7,67.5-146.6,81.4-272.9C1763.5,1808.4,1776.4,1806,1780.9,1814.7z"/>
	</g>
	<g class="st5">
		<path class="st6" d="M1752.9,1629.8c-95.8-40.6-130.5,29.6-37.2,83.5C1581,1654.5,1629.1,1558.9,1752.9,1629.8z"/>
	</g>
	<g class="st5">
		<path class="st6" d="M1738,1724.6c0.1,0,0.2,0.1,0.3,0.1c12.1,5.3,14.6,21.2,4.5,29.6c-86.7,71.9-83.4,233.6-26.2,374.6
			c-3.8,6-7.9,12.3-12.3,18.8C1628.7,1985.8,1614.3,1786.5,1738,1724.6z"/>
	</g>
	<g class="st5">
		<path class="st6" d="M1775.7,1646.6l-0.3-0.2c-50.6-77.8-4.6-122.7,26.2-86.8c-17,2.5-27,28.7-8.2,70.3
			C1798.3,1641,1786.3,1652.4,1775.7,1646.6z"/>
	</g>
	<g class="st5">
		<path class="st6" d="M2384.2,1598.3c-83.4-38.5-195-64.2-296.3-64.7c-15.6,30-68.3,28.5-90.4,7.2c-57,10.2-105.2,31.8-135.4,67.8
			c-8.6,10.3-25.5,9.6-32.2-2c-0.4-0.6-0.7-1.3-1-2C1923.3,1484.2,2241.7,1474.3,2384.2,1598.3z"/>
	</g>
	<g>
		<path class="st3" d="M2412.5,2170.5c-2.1,0-4.3-0.5-6.3-1.6c-57.6-31.8-70.4-149-73.3-194.2c-148.6,36-285.6,6.5-407.9-87.9
			c8.8,27.7,28.1,49.5,28.4,49.8c3.5,3.9,4.3,9.5,2.1,14.2c-2.1,4.6-6.8,7.6-11.8,7.6c-0.1,0-0.3,0-0.4,0
			c-59.9-1.8-105.5-26-136.1-72.1c-13.8,123.1-21.6,163.1-92.1,268.7c-2.6,3.9-7.1,6.1-11.8,5.8c-4.7-0.4-8.8-3.2-10.8-7.5
			c-74.8-160.3-89.3-351.6,18.6-427.7c-61.7-26.8-86.8-61.2-89.2-86.4c-1.6-16.8,5.9-31.3,20.6-39.7c19.8-11.3,56.1-12.2,104.8,12.6
			c-10.7-29.2-7.9-51.2,0.5-63.9c7.7-11.5,20.2-16.7,33.6-13.9c19.2,4.1,35.1,22.8,44.9,51.7c69-88.6,208.1-108.3,321.9-95.7
			c144.4,16,306.9,90.9,344.6,222c1.3,4.4,0.1,9.2-3,12.5c-3.1,3.4-7.8,4.8-12.3,3.9l-38.8-8.3c35.3,58,53.9,132.3,52.9,213.1
			c-1.2,88.7-26.1,173.2-68.5,231.8C2420.6,2168.6,2416.6,2170.5,2412.5,2170.5z M2345.3,1944.9c2.8,0,5.5,0.9,7.8,2.6
			c3.2,2.4,5.2,6.1,5.3,10.1c1,40.6,12.4,145.9,51,181.4c71.1-110.2,82.4-312-10.3-430.4c-3.4-4.3-3.7-10.3-0.8-15
			c2.9-4.7,8.4-7,13.8-5.8l48.2,10.3c-45.2-106.4-187.3-167.9-314.8-182c-145.4-16.2-268.3,26.3-313.1,108.1
			c-2.7,4.9-8.2,7.5-13.6,6.6c-5.5-0.9-9.8-5.2-10.7-10.7c-7.3-43.9-24.1-58.7-32-60.4c-1.9-0.4-4.2-0.4-6.3,2.8
			c-5.4,8.1-7.5,34.9,22.8,78.4c3.6,5.2,3,12.3-1.6,16.8c-4.5,4.5-11.6,5-16.8,1.3c-56.1-40.3-99.9-47.6-118.5-37
			c-5.8,3.3-8.2,8.1-7.6,14.6c2,20.9,32.9,51.9,97.4,74.1c5,1.7,8.5,6.3,8.8,11.6c0.3,5.3-2.6,10.2-7.4,12.5
			c-68.3,32.4-85,106.1-87.1,162.3c-2.4,66.6,14.6,146.9,46.9,223.3c58.8-91.7,63-129.5,77.5-261l2.1-18.9
			c0.7-5.9,5.3-10.7,11.2-11.5c5.9-0.8,11.7,2.5,13.9,8.1c21,52.6,55.5,82.9,105,92.1c-11.2-18.5-23.2-45.5-21.4-74.3
			c0.3-4.9,3.4-9.3,8-11.2c4.6-1.9,9.8-1.1,13.6,2.1c126,108.6,269.2,142,425.5,99.5C2343,1945.1,2344.1,1944.9,2345.3,1944.9z"/>
	</g>
	<g>
		<path class="st3" d="M2345.2,1971c-5.8,0-11-3.8-12.6-9.7c-1.9-7,2.3-14.1,9.2-16c16.2-4.4,32.6-9.6,48.7-15.6
			c6.8-2.5,14.3,0.9,16.8,7.7c2.5,6.8-1,14.3-7.7,16.8c-16.9,6.2-34,11.7-51,16.3C2347.5,1970.9,2346.4,1971,2345.2,1971z"/>
	</g>
	<g class="st2">
		<path class="st3" d="M2412.5,2157.4c-63.1-34.8-67.3-199.4-67.3-199.4c-149.3,40.6-300.4,15.8-437.4-102.2
			c-2.9,46.4,35.9,89.4,35.9,89.4c-17.6-0.5-33.4-3.1-47.6-7.4c-71.4-117.7-41-145.5,61.7-109.3c285.1,92,492.6,106.4,451.4-128
			C2507.2,1825.7,2495,2043.3,2412.5,2157.4z"/>
	</g>
	<g class="st10">
		<path class="st11" d="M2340.1,1809.4c0,19.8-38.7,35.8-86.5,35.8c-47.8,0-86.5-16-86.5-35.8s38.7-20.3,86.5-20.3
			C2301.4,1789.1,2340.1,1789.6,2340.1,1809.4z"/>
	</g>
	<g>
		<g>
			<path class="st3" d="M2104.6,2389c0,0-18.7,12-67.5,12c-10.6,0.7-40.9-0.9-79.2-35.9c0,0,17.7,51,78,51
				C2035.9,2416,2070.2,2419.2,2104.6,2389z"/>
		</g>
	</g>
	<g>
		<path class="st3" d="M1827.5,2162.5c4.1-13.3,13.9-24.4,26-31.9c12.1-7.5,26.7-11.4,41.1-11.2c14.5,0.1,28.8,4.2,40.8,11.7
			c12,7.5,21.8,18.3,26.4,31.4c-13.1-4.5-24.3-8.1-35.4-10.4c-11-2.4-21.5-3.5-32.1-3.7c-10.6-0.1-21.1,0.8-32,3.1
			C1851.5,2153.8,1840.5,2157.4,1827.5,2162.5z"/>
	</g>
	<g>
		<path class="st3" d="M2295.3,2162.5c-12.9-5-24-8.7-34.9-11c-10.9-2.3-21.4-3.2-32-3.1c-10.6,0.1-21.1,1.3-32.1,3.7
			c-11,2.3-22.2,5.9-35.4,10.4c4.6-13.2,14.4-23.9,26.4-31.4c12-7.5,26.4-11.6,40.8-11.7c14.4-0.2,29,3.7,41.1,11.2
			C2281.4,2138.1,2291.2,2149.2,2295.3,2162.5z"/>
	</g>
	<g>
		<ellipse class="st3" cx="1907.8" cy="2242" rx="44.9" ry="59.2"/>
	</g>
	<g>
		<g>
			<ellipse class="st6" cx="1919.3" cy="2228.3" rx="13.6" ry="19.9"/>
		</g>
		<g>
			<path class="st3" d="M1919.3,2250.8c-9.1,0-16.3-9.9-16.3-22.6s7.1-22.6,16.3-22.6c9.1,0,16.3,9.9,16.3,22.6
				S1928.4,2250.8,1919.3,2250.8z M1919.3,2211.1c-5.9,0-10.8,7.9-10.8,17.2s5,17.2,10.8,17.2s10.8-7.9,10.8-17.2
				S1925.2,2211.1,1919.3,2211.1z"/>
		</g>
	</g>
	<g>
		<ellipse class="st3" cx="2218.1" cy="2242" rx="44.9" ry="59.2"/>
	</g>
	<g>
		<g>
			<ellipse class="st6" cx="2206.6" cy="2228.3" rx="13.6" ry="19.9"/>
		</g>
		<g>
			<path class="st3" d="M2206.6,2250.8c-9.1,0-16.3-9.9-16.3-22.6s7.1-22.6,16.3-22.6c9.1,0,16.3,9.9,16.3,22.6
				S2215.7,2250.8,2206.6,2250.8z M2206.6,2211.1c-5.9,0-10.8,7.9-10.8,17.2s5,17.2,10.8,17.2s10.8-7.9,10.8-17.2
				S2212.5,2211.1,2206.6,2211.1z"/>
		</g>
	</g>
</g>
<defs>
	<filter id="Adobe_OpacityMaskFilter" filterUnits="userSpaceOnUse" x="1192.3" y="1990.2" width="1753.1" height="1337.1">
		<feFlood  style="flood-color:white;flood-opacity:1" result="back"/>
		<feBlend  in="SourceGraphic" in2="back" mode="normal"/>
	</filter>
</defs>
<mask maskUnits="userSpaceOnUse" x="1192.3" y="1990.2" width="1753.1" height="1337.1" id="SVGID_1_">
	<g class="st12">
		<defs>
			
				<filter id="Adobe_OpacityMaskFilter_00000144295809759342886960000014032702370033736611_" filterUnits="userSpaceOnUse" x="1192.3" y="1990.2" width="1753.1" height="1337.1">
				<feFlood  style="flood-color:white;flood-opacity:1" result="back"/>
				<feBlend  in="SourceGraphic" in2="back" mode="normal"/>
			</filter>
		</defs>
		<mask maskUnits="userSpaceOnUse" x="1192.3" y="1990.2" width="1753.1" height="1337.1" id="SVGID_1_">
			<g style="filter:url(#Adobe_OpacityMaskFilter_00000144295809759342886960000014032702370033736611_);">
			</g>
		</mask>
		
			<linearGradient id="SVGID_00000133490688839754739100000015584084050277966764_" gradientUnits="userSpaceOnUse" x1="2068.8621" y1="1996.3319" x2="2059.5938" y2="3330.9143">
			<stop  offset="0" style="stop-color:#000000"/>
			<stop  offset="1" style="stop-color:#FFFFFF"/>
		</linearGradient>
		<polygon style="mask:url(#SVGID_1_);fill:url(#SVGID_00000133490688839754739100000015584084050277966764_);" points="
			2591.8,3327.4 1549.4,3327.4 1192.3,1990.2 2945.4,2005.5 		"/>
	</g>
</mask>
<linearGradient id="SVGID_00000167370098323725464720000005788146697219825795_" gradientUnits="userSpaceOnUse" x1="2068.8621" y1="1996.3319" x2="2059.5938" y2="3330.9143">
	<stop  offset="0" style="stop-color:#40E6FF"/>
	<stop  offset="1" style="stop-color:#40E6FF"/>
</linearGradient>
<polygon style="opacity:0.5;fill:url(#SVGID_00000167370098323725464720000005788146697219825795_);" points="2591.8,3327.4 
	1549.4,3327.4 1192.3,1990.2 2945.4,2005.5 "/>
<g>
	<g>
		<path class="st16" d="M2714.1,3295.1c-7,34.4-25.6,64-51.2,85c-25.7,21-58.4,33.3-93.5,33.3h-997.4
			c-70.3,0-130.8-49.5-144.8-118.4H2714.1z"/>
	</g>
	<g>
		<path class="st3" d="M2569.3,3416.2h-997.4c-71.3,0-133.3-50.7-147.4-120.6l-0.7-3.3h1293.6l-0.7,3.2
			c-6.9,33.9-25.4,64.6-52.2,86.6C2637.7,3404.2,2603.9,3416.2,2569.3,3416.2z M1430.4,3297.8c14.9,65.6,73.8,113,141.4,113h997.4
			c33.4,0,66-11.6,91.8-32.7c25-20.4,42.5-48.8,49.6-80.2H1430.4z"/>
	</g>
</g>
<g>
	<path class="st3" d="M2569.3,3429.8h-997.4c-77.7,0-145.3-55.3-160.7-131.4c-1-4.8,0.3-9.7,3.3-13.5c3.1-3.8,7.7-6,12.6-6h1287
		c4.9,0,9.5,2.2,12.6,6s4.3,8.7,3.3,13.5C2714.6,3374.5,2647,3429.8,2569.3,3429.8z M1448.6,3311.4c18.8,50.7,67.8,85.8,123.3,85.8
		h997.4c55.4,0,104.4-35.1,123.3-85.8H1448.6z"/>
</g>
<g class="st2">
	<path class="st3" d="M2714.1,3295.1c-7,34.4-25.6,64-51.2,85c-25.7,21-58.4,33.3-93.5,33.3h-617c101.4-4.8,191.3-32.8,268.6-86.1
		c0,0,5.3-13,17.1-32.2H2714.1z"/>
</g>
<g>
	<g>
		<path class="st17" d="M2713.7,2669.7l-52.1,593.7c-3.2,36.2-33.5,64-69.9,64H1549.4c-36.3,0-66.7-27.8-69.9-64l-52-593.7
			c-5.1-58.3,40.8-108.5,99.3-108.5h1087.4c19.1,0,36.9,5.4,52.1,14.6C2697.5,2594.9,2717.1,2630.5,2713.7,2669.7z"/>
	</g>
	<g>
		<path class="st18" d="M2591.8,3330.1H1549.4c-38,0-69.2-28.6-72.6-66.5l-52-593.7c-2.5-28.5,7.1-57,26.5-78.2
			c19.4-21.1,46.9-33.3,75.5-33.3h1087.4c18.9,0,37.4,5.2,53.5,15c33.4,20.5,52,57.5,48.6,96.4v0l-52.1,593.7
			C2661,3301.5,2629.8,3330.1,2591.8,3330.1z M1526.9,2563.9c-27.1,0-53.2,11.5-71.5,31.5c-18.3,20-27.5,47-25.1,74l52,593.7
			c3.1,35.1,32,61.5,67.2,61.5h1042.3c35.2,0,64.1-26.5,67.2-61.5l52.1-593.7c3.3-36.9-14.4-71.9-46-91.3
			c-15.2-9.3-32.7-14.2-50.6-14.2H1526.9z"/>
	</g>
</g>
<g class="st19">
	<path class="st6" d="M2697.1,2605.2c-12.7-6-26.9-9.3-42-9.3H1567.6c-58.5,0-104.5,50.2-99.3,108.5l52,593.7
		c0.8,9.3,3.4,17.9,7.4,25.8c-26.1-8.4-45.7-31.9-48.2-60.6l-52-593.7c-5.1-58.3,40.8-108.5,99.3-108.5h1087.4
		C2649,2561.2,2679.2,2578.8,2697.1,2605.2z"/>
</g>
<g>
	<path class="st3" d="M2591.8,3343.6H1549.4c-45.1,0-82.1-33.9-86.1-78.9l-52.1-593.7c-2.8-32.3,8.1-64.6,30-88.5
		c21.9-23.9,53.1-37.6,85.5-37.6h1087.4c32.4,0,63.6,13.7,85.5,37.6c21.9,23.9,32.9,56.2,30,88.5l-52.1,593.7
		C2673.9,3309.7,2636.9,3343.6,2591.8,3343.6z M1526.9,2577.5c-23.7,0-45.6,9.6-61.6,27.1c-16,17.5-23.7,40.1-21.6,63.7l52.1,593.7
		c2.5,28,25.5,49.2,53.7,49.2h1042.3c28.1,0,51.2-21.1,53.7-49.2l52.1-593.7c2.1-23.6-5.6-46.2-21.6-63.7
		c-16-17.5-37.9-27.1-61.6-27.1H1526.9z"/>
</g>
<g class="st2">
	<path class="st3" d="M2713.7,2669.7l-52.1,593.7c-3.2,36.2-33.5,64-69.9,64h-940.2c578.6-45.5,936.5-279.3,1014.7-751.6l0.2,0
		C2697.5,2594.9,2717.1,2630.5,2713.7,2669.7z"/>
</g>
<g class="st2">
	<path class="st6" d="M1689.9,3059.5l-65.3,6.1c-16.9,1.6-31.9-10.9-33.5-27.8l-22.4-239.7c-1.6-16.9,10.9-31.9,27.8-33.5l65.3-6.1
		c16.9-1.6,31.9,10.9,33.5,27.8l22.4,239.7C1719.2,3042.9,1706.8,3057.9,1689.9,3059.5z"/>
</g>
<g>
	<g>
		<g>
			<g>
				<path class="st20" d="M1976.8,3120.6c-8.2,19.4,4.1,38.6,25.2,45.1c13.2,4.1,27.1-4.3,30.7-17.7c3.6-13.4-10.5-14.2-16-26.9
					C2007.3,3099.5,1983.8,3104,1976.8,3120.6z"/>
				<path class="st20" d="M2032.7,3148c-3.6,13.4-17.5,21.8-30.7,17.7c-16.7-5.2-27.9-18.3-27.8-33.1c0-3.9,0.9-7.9,2.6-12
					c7-16.6,30.5-21.2,39.9,0.5c0.1,0.1,0.1,0.3,0.2,0.4C2022.5,3133.8,2036.3,3134.8,2032.7,3148z"/>
				<path class="st21" d="M2032.7,3148c-3.6,13.4-17.5,21.8-30.7,17.7c-16.7-5.2-27.9-18.3-27.8-33.1c2.3,6,6.6,13,14.3,11.9
					c9-1.3,5.5-18.1,27.8-23c0.2,0,0.4-0.1,0.5-0.1C2022.5,3133.8,2036.3,3134.8,2032.7,3148z"/>
			</g>
			<g>
				<path class="st22" d="M1976.8,3120.6c-8.2,19.4,4.1,38.6,25.2,45.1c13.2,4.1,27.1-4.3,30.7-17.7c3.6-13.4-10.5-14.2-16-26.9
					C2007.3,3099.5,1983.8,3104,1976.8,3120.6z"/>
			</g>
		</g>
		<g>
			<path class="st23" d="M2109.8,3186.8l60.2,15.8c0,0,16.7,1.9,28.3,1.9c23.5,0,30.5-36.5,30.5-36.5L2204,3144l-62.6-19.4"/>
			<path class="st20" d="M2109.8,3186.9l60.2,15.8c0,0,16.7,1.9,28.3,1.9c23.5,0,30.5-36.5,30.5-36.5l-18.8-18.4l-5.9-5.7
				l-46.5-14.4l-14.6-4.5l-1.4-0.4l-4.9,9.6L2109.8,3186.9z"/>
			<path class="st24" d="M2109.8,3186.9l60.2,15.8c0,0,16.7,1.9,28.3,1.9c23.5,0,30.5-36.5,30.5-36.5l-18.8-18.4l-22.7-7.4
				c-9.6,5.5-4.7,30.2-19.7,26.2c-11.6-3.1-9.4-23.4-10-38.9l-14.6-4.5c-2,2.7-4.1,5.8-6.3,9.2L2109.8,3186.9z"/>
			<path class="st22" d="M2109.8,3186.8l60.2,15.8c0,0,16.7,1.9,28.3,1.9c23.5,0,30.5-36.5,30.5-36.5L2204,3144l-62.6-19.4"/>
			<path class="st20" d="M2162.6,3200.7c6,1.6,27.9,7.8,42,3.1c17.6-5.9,26.5-26.7,28.7-31.5c12.6-27.5,2-47.3-10.6-52
				c-21.9-8.1-39.1,10.6-44.6,48.4L2162.6,3200.7z"/>
			<path class="st20" d="M2233.3,3172.3c-0.6,1.3-1.6,3.6-3.1,6.5c-4.3,8.2-12.6,20.7-25.6,25c-14,4.7-36-1.5-42-3.1l15.5-32
				c0.8-5.4,1.8-10.3,3-14.9c7.5-27.7,22.8-40.5,41.6-33.5C2235.2,3125.1,2245.9,3144.9,2233.3,3172.3z"/>
			<path class="st24" d="M2230.8,3174.9c-0.5,1-0.6,2.4-0.6,3.9c-4.3,8.2-12.6,20.7-25.6,25c-14,4.7-36-1.5-42-3.1l15.5-32
				c0.8-5.4,1.8-10.3,3-14.9c-2.9,19.4,2.9,41,19.7,42C2217.7,3196.8,2229.8,3176.7,2230.8,3174.9z"/>
			<g>
				<g>
					<path class="st25" d="M2163.2,3198.1c8.7,2.4,17.7,4.4,26.7,4.7c6.5,0.3,13-0.5,18.7-3.8c10.7-6.1,17.4-17.1,22.3-28.1
						c1.4-3,2.6-6.2,3.5-9.4c3-10.3,2.7-22-3.6-30.9c-2.3-3.3-5.5-6.1-9.2-7.5c-12.5-4.8-22.3,0.6-29.4,11.1
						c-5.7,8.4-9.2,18.1-12.1,27.9c-0.7,2.2-1.3,4.4-2,6.7c0.1-9.4,1.7-18.8,5-27.6c4.2-11.3,12.7-22.9,25.4-25.1
						c5.1-0.9,10.4-0.2,15.1,1.6c10,3.5,15.9,13.7,17.5,23.7c1.7,10.9-0.8,22-5.3,32c-4.4,9.8-10,19.3-18.4,26.4
						c-5.6,4.8-13,8-20.4,8.5c-10.8,0.8-21.4-1.2-31.8-3.8c-1.1-0.3-2.3-0.6-3.4-0.9L2163.2,3198.1L2163.2,3198.1z"/>
				</g>
			</g>
			
				<ellipse transform="matrix(0.2109 -0.9775 0.9775 0.2109 -1334.7483 4630.2085)" class="st26" cx="2200.6" cy="3141.9" rx="6.9" ry="5.4"/>
			
				<ellipse transform="matrix(0.2109 -0.9775 0.9775 0.2109 -1323.5376 4663.5654)" class="st26" cx="2226.9" cy="3151.6" rx="6.9" ry="5.4"/>
			
				<ellipse transform="matrix(0.2109 -0.9775 0.9775 0.2109 -1319.6848 4643.7095)" class="st26" cx="2216.5" cy="3139.3" rx="8.9" ry="7"/>
			<path class="st26" d="M2217.4,3179.3c-5.1,11-12.8,17.4-19.6,15.7c-6.8-1.7-8.8-12.5-6.2-24.3c3.3-15.4,12.4-18,19.6-15.7
				c0,0,0,0,0,0C2218.3,3157.5,2224.1,3165,2217.4,3179.3z"/>
		</g>
		<g>
			<path class="st23" d="M2061.9,3186.8l-60.2,15.8c0,0-16.7,1.9-28.3,1.9c-23.5,0-30.5-36.5-30.5-36.5l24.7-24.1l62.6-19.4"/>
			<path class="st20" d="M2061.9,3186.9l-60.2,15.8c0,0-16.7,1.9-28.3,1.9c-23.5,0-30.5-36.5-30.5-36.5l18.8-18.4l5.9-5.7l46.5-14.4
				l14.6-4.5l1.4-0.4l4.9,9.6L2061.9,3186.9z"/>
			<path class="st24" d="M2061.9,3186.9l-60.2,15.8c0,0-16.7,1.9-28.3,1.9c-23.5,0-30.5-36.5-30.5-36.5l18.8-18.4l22.7-7.4
				c9.6,5.5,4.7,30.2,19.7,26.2c11.6-3.1,9.4-23.4,10-38.9l14.6-4.5c2,2.7,4.1,5.8,6.3,9.2L2061.9,3186.9z"/>
			<path class="st22" d="M2061.9,3186.8l-60.2,15.8c0,0-16.7,1.9-28.3,1.9c-23.5,0-30.5-36.5-30.5-36.5l24.7-24.1l62.6-19.4"/>
			<path class="st20" d="M2009.1,3200.7c-6,1.6-27.9,7.8-42,3.1c-17.6-5.9-26.5-26.7-28.7-31.5c-12.6-27.5-2-47.3,10.6-52
				c21.9-8.1,39.1,10.6,44.6,48.4L2009.1,3200.7z"/>
			<path class="st20" d="M1938.4,3172.3c0.6,1.3,1.6,3.6,3.1,6.5c4.3,8.2,12.6,20.7,25.6,25c14,4.7,36-1.5,42-3.1l-15.5-32
				c-0.8-5.4-1.8-10.3-3-14.9c-7.5-27.7-22.8-40.5-41.6-33.5C1936.4,3125.1,1925.8,3144.9,1938.4,3172.3z"/>
			<path class="st24" d="M1940.9,3174.9c0.5,1,0.6,2.4,0.6,3.9c4.3,8.2,12.6,20.7,25.6,25c14,4.7,36-1.5,42-3.1l-15.5-32
				c-0.8-5.4-1.8-10.3-3-14.9c2.9,19.4-2.9,41-19.7,42C1954,3196.8,1941.8,3176.7,1940.9,3174.9z"/>
			<g>
				<g>
					<path class="st25" d="M2009.8,3203.3c-13,3.5-29.3,7.1-42.5,3.4c-16.2-5-25.9-20.4-32.2-35.1c-6-13.8-7.9-31.2,0.8-44.3
						c2.1-3.1,4.8-5.8,8-7.8c5.6-3.3,12.8-4.7,19.2-3.6c8.9,1.5,16.1,8,20.7,15.4c6.9,11.1,9.7,24.5,9.7,37.4
						c-4-12.8-7.9-26.3-16.1-37.1c-5.5-7-13.1-11.4-22.1-9.9c-2.7,0.5-5.5,1.3-7.9,2.7c-8.2,5-12.1,14.9-12.1,24.2
						c0,7.7,2.1,15.4,5.3,22.3c5.7,12.7,14.2,26.2,28.1,30.6c11.2,3.1,25.1,0.2,36.2-2.5c1.1-0.3,2.2-0.6,3.3-0.9L2009.8,3203.3
						L2009.8,3203.3z"/>
				</g>
			</g>
			
				<ellipse transform="matrix(0.9775 -0.2109 0.2109 0.9775 -618.3706 486.4542)" class="st26" cx="1971.1" cy="3141.9" rx="5.4" ry="6.9"/>
			
				<ellipse transform="matrix(0.9775 -0.2109 0.2109 0.9775 -621.0163 481.1343)" class="st26" cx="1944.8" cy="3151.6" rx="5.4" ry="6.9"/>
			
				<ellipse transform="matrix(0.9775 -0.2109 0.2109 0.9775 -618.1777 483.0395)" class="st26" cx="1955.2" cy="3139.3" rx="7" ry="8.9"/>
			<path class="st26" d="M1954.2,3179.3c5.1,11,12.8,17.4,19.6,15.7c6.8-1.7,8.8-12.5,6.2-24.3c-3.3-15.4-12.4-18-19.6-15.7
				c0,0,0,0,0,0C1953.4,3157.5,1947.6,3165,1954.2,3179.3z"/>
		</g>
		<polygon class="st27" points="2085.5,3204.2 2085.5,3204.2 2085.5,3204.2 		"/>
		<polygon class="st27" points="2085.5,3204.2 2085.5,3204.2 2085.5,3204.2 		"/>
		<path class="st20" d="M2166.5,3150l-24.4,35.2c0,0-5,2.1-13.6,4.4c-9.9,2.6-24.8,5.4-42.6,5.4c-17.9,0-32.7-2.8-42.6-5.5
			c-0.5-0.1-1-0.3-1.5-0.4h0c-7.7-2.1-12.1-4-12.1-4l-24.4-35.2c-1.3-6.4-1.3-13.8-0.4-21.8c1.3-11.1,4.6-23.4,9.2-35.6
			c8.3-21.8,20.9-43.2,34.4-57.5h75c13.5,14.3,26.1,35.8,34.4,57.5C2165.6,3113.6,2169.5,3134.7,2166.5,3150z"/>
		<path class="st24" d="M2067.3,3189.4l-6.4,3.9c-6.9-1-12.9-2.3-17.8-3.6c-0.5-0.1-1-0.3-1.5-0.4h0c-7.7-2.1-12.1-4-12.1-4
			l-17.6-25.4c4.1-13-0.5-36.5,5.2-44.8C2022.9,3106.9,2067.3,3189.4,2067.3,3189.4z"/>
		<path class="st24" d="M2128.4,3189.7c-9.9,2.6-24.8,5.4-42.6,5.4c-17.9,0-32.7-2.8-42.6-5.5l15.6-70l15.3-2.5
			c0,0,5.1,24.4,11.8,24.4c6.7,0,11.8-24.4,11.8-24.4l15.3,2.5L2128.4,3189.7z"/>
		<path class="st28" d="M2126.8,3182.4c-16.8,9.2-41,8.7-41,8.7s-24.3,0.5-41-8.7l11-49.2c10.3-3,19.5-4.4,18.8-8.4
			c-0.4-2.3-0.6-4.8-0.4-7.3c0.6,2.8,5.5,24.1,11.7,24.1c6.2,0,11.1-21.4,11.7-24.1c0.1,2.5,0,5-0.4,7.3c-0.7,4,8.5,5.4,18.8,8.4
			L2126.8,3182.4z"/>
		<path class="st23" d="M2157.6,3092.7c-15.7,24.7-56.3,30.5-71.9,30.5s-56.2-5.8-71.9-30.5c8.3-21.8,20.9-43.2,34.4-57.5h75
			C2136.8,3049.4,2149.4,3070.9,2157.6,3092.7z"/>
		<path class="st20" d="M2157.6,3092.7c-15.7,24.7-56.3,30.5-71.9,30.5s-56.2-5.8-71.9-30.5c2-5.2,4.2-10.4,6.7-15.5
			c7.7-16.1,17.4-31.1,27.7-42h75c10.3,10.8,20,25.8,27.7,41.9C2153.4,3082.2,2155.7,3087.4,2157.6,3092.7z"/>
		<path class="st24" d="M2151,3077.1c-15.8,9.5-39.2,15.5-65.3,15.5c-26,0-49.4-6-65.1-15.5c7.7-16.1,17.4-31.1,27.7-42h75
			C2133.5,3046,2143.3,3061,2151,3077.1z"/>
		<path class="st29" d="M2150.3,3077.5c-8.8,5.2-19.9,9.3-32.5,11.9l24.2-28.7C2145.7,3065.4,2148.4,3071.1,2150.3,3077.5z"/>
		<path class="st29" d="M2053.8,3089.4c-12.6-2.6-23.7-6.7-32.6-11.9c1.9-6.4,4.6-12.2,8.3-16.9L2053.8,3089.4z"/>
		<path class="st30" d="M2035.7,3079c-0.3,0-0.5-0.1-0.8-0.2C2035,3078.9,2035.3,3078.9,2035.7,3079z"/>
		<path class="st24" d="M2104.3,3189.4l6.4,3.9c6.9-1,12.9-2.3,17.8-3.6c0.5-0.1,1-0.3,1.5-0.4h0c7.7-2.1,12.1-4,12.1-4l17.6-25.4
			c-4.1-13,0.5-36.5-5.2-44.8C2148.7,3106.9,2104.3,3189.4,2104.3,3189.4z"/>
		<g>
			<g>
				<path class="st25" d="M2166.5,3150c1.2-36.6-21.3-85.7-45.4-112.8c0,0,2.2,0.9,2.2,0.9h-37.5c0,0,0-6,0-6c0,0,0,6,0,6h-37.5
					c0,0,2.2-0.9,2.2-0.9c-9.7,11.1-17.7,23.8-24.4,36.9c-10,19.5-17.4,40.5-20.2,62.2c-0.6,4.6-0.8,9-0.7,13.7
					c-1.6-4.1-2.3-8.4-2.7-12.8c-1.3-18.5,5-38.6,12.1-55.5c3.2-7.4,6.8-14.6,10.9-21.5c6-10.2,13.1-19.8,21.6-28.1c0,0,1.3,0,1.3,0
					h37.5v6c0,0,0-6,0-6c0,0,37.5,0,37.5,0h1.3c11.7,11.7,20.7,25.8,28,40.6C2162.8,3093.9,2174.3,3127.1,2166.5,3150L2166.5,3150z"
					/>
			</g>
		</g>
		<g>
			<path class="st25" d="M2029.5,3185.3c9.7,0.9,22,3.9,31.6,5.6c6.1,1.1,12.3,1.6,18.5,1.8c1.6,0,4.6,0.1,6.2,0.1
				c1.2,0,4.2-0.1,5.3-0.1c5.3-0.2,10.6-0.5,15.9-1.3c1.6-0.2,3.6-0.6,5.2-0.9c1.7-0.3,3.5-0.7,5.2-1c2.9-0.6,5.8-1.2,8.7-1.8
				c2.9-0.6,5.8-1.2,8.7-1.6c2.3-0.4,4.9-0.7,7.3-0.9c-0.7,0.6-1.5,1.2-2.2,1.7c-2.3,1.5-4.8,2.8-7.4,3.8
				c-5.7,2.2-11.6,3.6-17.6,4.5c-10.8,1.5-21.7,2.5-32.6,2.2c-6.1-0.1-12.1-0.6-18.1-1.3c-8.4-0.9-16.9-2.3-24.8-5.5
				C2035.8,3189.3,2032.4,3187.6,2029.5,3185.3L2029.5,3185.3z"/>
		</g>
		<path class="st31" d="M2142.4,3158.3c-0.3,34-56.6,32.8-56.6,32.8s-56.4,1.2-56.6-32.8c-0.2-28.4,47-24.7,45.4-33.5
			c-1.7-9.4,0.9-22.5,11.3-22.5c10.4,0,13,13,11.3,22.5C2095.4,3133.6,2142.6,3129.9,2142.4,3158.3z"/>
		<path class="st32" d="M2126.8,3182.4c-16.8,9.2-41,8.7-41,8.7s-24.3,0.5-41-8.7l11-49.2c10.3-3,19.5-4.4,18.8-8.4
			c-0.4-2.3-0.6-4.8-0.4-7.3c0.6,2.8,5.5,24.1,11.7,24.1c6.2,0,11.1-21.4,11.7-24.1c0.1,2.5,0,5-0.4,7.3c-0.7,4,8.5,5.4,18.8,8.4
			L2126.8,3182.4z"/>
		<g>
			<g>
				<path class="st20" d="M2096.4,3200.2c5.1,10.7,18.9,13.1,27.6,12.1c0.1,0,0.2,0,0.2,0c0.2,0,0.5-0.1,0.7-0.1
					c0.3,0,0.6-0.1,0.9-0.1c0.2,0,0.4-0.1,0.6-0.1c0.1,0,0.3-0.1,0.4-0.1c0.1,0,0.2-0.1,0.4-0.1c6.5,1.2,13.6,1.7,19.9-1.9
					c3-0.2,5.4-1.3,7.1-3c0.2-0.2,0.5-0.5,0.7-0.7c0.3-0.4,0.6-0.8,0.9-1.2c0.1-0.1,0.2-0.3,0.3-0.4c0.3-0.6,0.6-1.2,0.8-1.9
					c0.6-1.8,0.8-3.8,0.6-5.9c0-0.2,0-0.4-0.1-0.5c0-0.1,0-0.3-0.1-0.4c0-0.1,0-0.1,0-0.2c0-0.1-0.1-0.3-0.1-0.4c0,0,0,0,0,0
					c0-0.2-0.1-0.3-0.1-0.5c0-0.2-0.1-0.4-0.2-0.6c0,0,0,0,0,0c-1.4-5-5.4-10.1-12.1-13.1c0,0,23.6-86.5-2.7-120.2l-44.2,52.4
					c-0.1,2.2-0.3,4.5-0.4,6.6C2094.4,3164.5,2090.6,3189.9,2096.4,3200.2z"/>
			</g>
			<g>
				<path class="st24" d="M2150.3,3077.5c-8.8,5.2-19.9,9.3-32.5,11.9l24.2-28.7C2145.7,3065.4,2148.4,3071.1,2150.3,3077.5z"/>
			</g>
			<g>
				<path class="st24" d="M2096.4,3200.2c5.1,10.7,18.9,13.1,27.6,12.1c0.1,0,0.2,0,0.2,0c0.8-0.1,1.5-0.2,2.2-0.4
					c0.1,0,0.3-0.1,0.4-0.1c0.1,0,0.2-0.1,0.4-0.1c6.5,1.2,13.6,1.7,19.9-1.9c3-0.2,5.4-1.3,7.1-3c0.2-0.2,0.5-0.5,0.7-0.7
					c0.3-0.4,0.6-0.8,0.9-1.2c0.1-0.1,0.2-0.3,0.3-0.4c0.3-0.6,0.6-1.2,0.8-1.9c0.6-1.8,0.8-3.8,0.6-5.9c0-0.2,0-0.4-0.1-0.5
					c0-0.1,0-0.3-0.1-0.4c0-0.1,0-0.1,0-0.2c0-0.1-0.1-0.3-0.1-0.4c0,0,0,0,0,0c0-0.2-0.1-0.3-0.1-0.5c0-0.2-0.1-0.4-0.2-0.6
					c-0.5,4.4-2.6,7.1-7.8,7.5c-3.9,3.1-11.9,3.4-16.5,1.9c-9.2,2.4-22.8,1.7-29.3-3.8c-9.9-7.3,0-62.9-5.9-79.9
					C2094.4,3164.5,2090.6,3189.9,2096.4,3200.2z"/>
			</g>
			<g>
				<g>
					<g>
						<path class="st25" d="M2097.8,3113.1c0.7,14.6,0.2,29.3-0.5,43.9c-0.4,9-1.2,18.1-1.2,27.1c0,3.4,0.2,7,1,10.3
							c0.4,1.7,0.9,3.2,1.7,4.6c4.1,8.5,14.9,11.2,23.7,10.6c1.6-0.1,3-0.4,4.4-0.8c1.8,0.3,3.6,0.6,5.4,0.7c4.5,0.4,9.2,0,13.1-2.3
							l0.7-0.3l0.6,0c6-0.3,8.7-5.4,7.7-10.8c-1-5.8-5.5-10.5-10.8-12.8c0,0-2.1-0.9-2.1-0.9c0.4-1.8,1.1-4.1,1.5-5.9
							c7.2-30.5,16.8-87.9-3.2-114.2c-0.9-1.2-0.7-2.9,0.5-3.8c1.2-0.9,2.8-0.7,3.8,0.5c1.7,2.2,3.2,4.5,4.4,6.9
							c3.7,7.1,5.8,15,7,22.9c1.6,10.4,1.8,20.9,1.3,31.3c-1,19.5-4.1,38.7-8.6,57.7c-0.3,1.1-0.7,2.7-1,3.8c0,0-1.5-3.2-1.5-3.2
							c1.7,0.8,3.3,1.7,4.8,2.8c4.7,3.3,8.2,8.1,9.3,13.9c1,5-0.3,10.7-4.2,14.2c-2.3,2.1-5.5,3.3-8.6,3.6c0,0,1.3-0.4,1.3-0.4l0,0
							c-5,2.8-11,3.3-16.5,2.8c-1.8-0.2-3.6-0.5-5.3-0.8l1.2,0c-1.6,0.4-3.2,0.6-4.8,0.8c-9.5,0.6-20-2-26.3-9.6
							c-1.1-1.3-2-2.7-2.7-4.3c-0.6-1-1.7-4-2.1-5.7c-0.4-1.9-0.7-3.9-0.9-5.8c-1-11.1-0.1-22.3,0.9-33.3
							C2093.4,3142,2095.3,3127.5,2097.8,3113.1L2097.8,3113.1z"/>
					</g>
				</g>
			</g>
			<g>
				<g>
					<path class="st25" d="M2110.5,3185.9c8.9-6.8,23.9-9.8,34.9-7.6c1.5,0.3,2.4,1.7,2.1,3.2c-0.3,1.6-2,2.6-3.6,2
						C2134.1,3180,2119.8,3180.8,2110.5,3185.9L2110.5,3185.9z"/>
				</g>
			</g>
			<g>
				<g>
					<path class="st25" d="M2144.7,3189.4c6.3,5.9,8.5,17.2,1.7,23.7c0,0-3.4-4.2-3.4-4.2c2.9-1.7,4.5-5.1,4.7-8.5
						C2148,3196.6,2146.9,3192.6,2144.7,3189.4L2144.7,3189.4z"/>
				</g>
			</g>
			<g>
				<g>
					<path class="st25" d="M2127.9,3189.4c7.4,5.9,9.1,19,0.5,24.7c0,0-2.6-4.7-2.6-4.7c3.4-1.3,5.3-4.8,5.6-8.4
						C2131.8,3196.9,2130.5,3192.6,2127.9,3189.4L2127.9,3189.4z"/>
				</g>
			</g>
		</g>
		<g>
			<g>
				<path class="st20" d="M2075.2,3200.2c-5.1,10.7-18.9,13.1-27.6,12.1c-0.1,0-0.2,0-0.2,0c-0.2,0-0.5-0.1-0.7-0.1
					c-0.3,0-0.6-0.1-0.9-0.1c-0.2,0-0.4-0.1-0.6-0.1c-0.1,0-0.3-0.1-0.4-0.1c-0.1,0-0.2-0.1-0.4-0.1c-6.5,1.2-13.6,1.7-19.9-1.9
					c-3-0.2-5.4-1.3-7.1-3c-0.2-0.2-0.5-0.5-0.7-0.7c-0.3-0.4-0.6-0.8-0.9-1.2c-0.1-0.1-0.2-0.3-0.3-0.4c-0.3-0.6-0.6-1.2-0.8-1.9
					c-0.6-1.8-0.8-3.8-0.6-5.9c0-0.2,0-0.4,0.1-0.5c0-0.1,0-0.3,0.1-0.4c0-0.1,0-0.1,0-0.2c0-0.1,0.1-0.3,0.1-0.4c0,0,0,0,0,0
					c0-0.2,0.1-0.3,0.1-0.5c0-0.2,0.1-0.4,0.2-0.6c0,0,0,0,0,0c1.4-5,5.4-10.1,12.1-13.1c0,0-23.6-86.5,2.7-120.2l44.2,52.4
					c0.1,2.2,0.3,4.5,0.4,6.6C2077.2,3164.5,2081,3189.9,2075.2,3200.2z"/>
			</g>
			<g>
				<path class="st24" d="M2053.8,3089.4c-12.6-2.6-23.7-6.7-32.6-11.9c1.9-6.4,4.6-12.2,8.3-16.9L2053.8,3089.4z"/>
			</g>
			<g>
				<path class="st24" d="M2075.2,3200.2c-5.1,10.7-18.9,13.1-27.6,12.1c-0.1,0-0.2,0-0.2,0c-0.8-0.1-1.5-0.2-2.2-0.4
					c-0.1,0-0.3-0.1-0.4-0.1c-0.1,0-0.2-0.1-0.4-0.1c-6.5,1.2-13.6,1.7-19.9-1.9c-3-0.2-5.4-1.3-7.1-3c-0.2-0.2-0.5-0.5-0.7-0.7
					c-0.3-0.4-0.6-0.8-0.9-1.2c-0.1-0.1-0.2-0.3-0.3-0.4c-0.3-0.6-0.6-1.2-0.8-1.9c-0.6-1.8-0.8-3.8-0.6-5.9c0-0.2,0-0.4,0.1-0.5
					c0-0.1,0-0.3,0.1-0.4c0-0.1,0-0.1,0-0.2c0-0.1,0.1-0.3,0.1-0.4c0,0,0,0,0,0c0-0.2,0.1-0.3,0.1-0.5c0-0.2,0.1-0.4,0.2-0.6
					c0.5,4.4,2.6,7.1,7.8,7.5c3.9,3.1,11.9,3.4,16.5,1.9c9.2,2.4,22.8,1.7,29.3-3.8c9.9-7.3,0-62.9,5.9-79.9
					C2077.2,3164.5,2081,3189.9,2075.2,3200.2z"/>
			</g>
			<g>
				<g>
					<g>
						<path class="st25" d="M2073.7,3113.1c2.5,14.4,4.4,29,5.9,43.5c1,11,1.9,22.1,0.9,33.3c-0.2,1.9-0.5,3.8-0.9,5.8
							c-0.3,1.7-1.4,4.7-2.1,5.7c-0.7,1.5-1.6,3-2.7,4.3c-6.3,7.6-16.8,10.2-26.3,9.6c-1.6-0.1-3.2-0.3-4.8-0.8l1.2,0
							c-1.7,0.3-3.5,0.6-5.3,0.8c-5.6,0.6-11.5,0-16.5-2.8c0,0,0,0,0,0l1.3,0.4c-3.1-0.2-6.2-1.4-8.6-3.6c-3.9-3.5-5.2-9.2-4.2-14.2
							c1.1-5.8,4.7-10.6,9.3-13.9c1.5-1.1,3.1-2,4.8-2.8c0,0-1.5,3.2-1.5,3.2c-0.3-1.1-0.7-2.7-1-3.8c-4.5-18.9-7.7-38.2-8.6-57.7
							c-0.7-18.1,0-37.7,8.4-54.2c1.3-2.4,2.7-4.7,4.4-6.9c0.9-1.2,2.6-1.4,3.8-0.5c1.2,0.9,1.4,2.6,0.5,3.8
							c-20,26.3-10.4,83.6-3.2,114.2c0.4,1.8,1.1,4.1,1.5,5.9c0,0-2.1,0.9-2.1,0.9c-5.4,2.3-9.8,7-10.8,12.8
							c-0.9,5.4,1.8,10.5,7.7,10.8c0,0,0.6,0,0.6,0l0.7,0.3c3.9,2.3,8.6,2.7,13.1,2.3c1.8-0.1,3.6-0.4,5.4-0.7
							c1.4,0.4,2.9,0.7,4.4,0.8c8.8,0.6,19.6-2.1,23.7-10.6c0.8-1.3,1.3-2.9,1.7-4.6c0.8-3.3,0.9-6.9,1-10.3c0-9-0.8-18.1-1.2-27.1
							C2073.6,3142.4,2073,3127.7,2073.7,3113.1L2073.7,3113.1z"/>
					</g>
				</g>
			</g>
			<g>
				<g>
					<path class="st25" d="M2061,3185.9c-5.1-2.9-11-4-16.8-4.4c-5.6-0.3-11.5,0.1-16.7,2c-1.4,0.5-2.9-0.2-3.4-1.6
						c-0.6-1.5,0.4-3.3,2-3.6c6.2-1.2,12.4-0.8,18.5,0.5C2050.5,3180.2,2056.3,3182.3,2061,3185.9L2061,3185.9z"/>
				</g>
			</g>
			<g>
				<g>
					<path class="st25" d="M2026.9,3189.4c-2.2,3.2-3.3,7.2-3,11c0.2,3.4,1.7,6.8,4.7,8.5c0,0-3.4,4.2-3.4,4.2
						C2018.4,3206.6,2020.5,3195.3,2026.9,3189.4L2026.9,3189.4z"/>
				</g>
			</g>
			<g>
				<g>
					<path class="st25" d="M2043.7,3189.4c-2.7,3.2-3.9,7.5-3.5,11.6c0.3,3.6,2.2,7.2,5.6,8.4c0,0-2.6,4.7-2.6,4.7
						C2034.6,3208.4,2036.3,3195.3,2043.7,3189.4L2043.7,3189.4z"/>
				</g>
			</g>
		</g>
		<path class="st20" d="M2130,2892.8c-9.4-78.3,0.4-151,32-193.1c30.8-41,69.7-46.9,84.1-35.7c47.4,38.3-76.5,150.6-95.9,232.4"/>
		<path class="st33" d="M2185.7,2821.7c-16.1,25.8-30,51.5-35.5,74.7l-20.2-3.6c-3.2-26.3-4.2-52-2.9-76
			c2.5-47.7,13.9-89.1,34.9-117.1c30.8-41,69.7-46.9,84.1-35.7C2280.1,2691.4,2226.2,2756.7,2185.7,2821.7z"/>
		<path class="st24" d="M2185.7,2821.7c-16.1,25.8-30,51.5-35.5,74.7l-20.2-3.6c-3.2-26.3-4.2-52-2.9-76c8.3,9,21.5,15.8,35.2-6.7
			c17.7-29.1,16.6-3.6,16.6-3.6S2178.8,2820.4,2185.7,2821.7z"/>
		<path class="st22" d="M2130,2892.8c-9.4-78.3,0.4-151,32-193.1c30.8-41,69.7-46.9,84.1-35.7c47.4,38.3-76.5,150.6-95.9,232.4"/>
		<path class="st26" d="M2238.9,2673.6c-41-10.5-65.6,54.6-73.3,121.3c-8.3,66.2-23,79.7-20.8,80.6c0.8,0.5,2.7,0.9,4.5-1.9
			c8.3-24.4,21.5-46.2,36.8-69.5c19.8-30.2,37.3-56.4,47.4-73.1c0,0,10.6-18.4,13-29.9C2251.7,2676.9,2238.9,2673.6,2238.9,2673.6z"
			/>
		<path class="st26" d="M2246.6,2701.2c-2.4,11.6-13,29.9-13,29.9c-10.1,16.6-27.6,42.9-47.4,73.1c-0.4,0.6-0.8,1.2-1.2,1.8
			c-14.8,22.6-27.5,43.9-35.6,67.7c-1.8,2.8-3.7,2.4-4.5,1.9c-2.3-0.9,12.4-14.4,20.8-80.6c7.5-64.6,30.8-127.7,69.4-122.1
			c0,0,0,0,0,0c1.3,0.2,2.5,0.4,3.8,0.8C2238.9,2673.6,2251.7,2676.9,2246.6,2701.2z"/>
		<path class="st34" d="M2192.1,2716.1c-13.6,33.6-27.5,92.8-7.1,89.9c-14.8,22.6-27.5,43.9-35.6,67.7c-1.8,2.8-3.7,2.4-4.5,1.9
			c-2.3-0.9,12.4-14.4,20.8-80.6c7.5-64.6,30.8-127.7,69.4-122.1C2234.3,2673,2208.2,2676.4,2192.1,2716.1z"/>
		<g>
			<g>
				<path class="st25" d="M2238.9,2673.6c-29.8-6-46.1,26.8-54.5,50.1c-7.9,22.2-12.5,45.5-15.5,68.9c-3.1,23.8-7.3,47.7-15.9,70.2
					c-1.4,3.6-3,7.1-4.7,10.5c-0.4,0.8-0.7,1.4-1,2.2c0,0,0,0,0,0c0,0,0-0.1,0-0.3c0-0.9-0.7-1.8-1.5-2.1c0,0,0.4,0.2,0.4,0.2
					c0,0,0,0,0,0c0,0,0,0,0,0c0.4-0.2,0.7-0.6,1-1c0,0-0.3,0.6-0.3,0.6c9.1-26.5,23.6-50.6,39.4-73.5c15.6-22.9,31.7-45.4,47.3-68.2
					c-3.3,6.1-6.8,12.1-10.3,18c-14.1,23.8-29.1,47.1-43.7,70.5c-10.9,17.4-21.2,35.3-27.7,54.9c0,0-0.1,0.3-0.1,0.3l-0.2,0.3
					c-1.4,2.2-4,4-6.8,3.3c-0.4-0.1-0.9-0.3-1.3-0.5l0.4,0.2c-1.5-0.5-2.2-2.1-1.9-3.6c0.3-1.2,0.9-2.4,1.4-3.5
					c1.6-3.3,3.2-6.7,4.5-10.1c9-23.2,12.6-48.1,15.6-72.7c3.7-27.5,9.9-55.2,22.4-80.1C2195.9,2688.3,2214.1,2665.9,2238.9,2673.6
					L2238.9,2673.6z"/>
			</g>
		</g>
		<path class="st20" d="M2041.5,2884c2.4-43.4-9.9-104.1-28.7-121.5c-12.6-10.2-79.3,31.5-46.7,62.4c13.1,7,39.4,31.4,53,70.7"/>
		<path class="st24" d="M2041.5,2884l-20,10.4c-1,0-1.9-0.1-2.9-0.1c-13.7-38.5-39.6-62.4-52.5-69.3c-2.4-2.2-4.2-4.6-5.6-6.9
			c16.3-17.8,45.2-47.4,48.9-39.8c10.6,22.2,11.1,83.2,30.7,64.9C2041.7,2857.2,2042.2,2871.4,2041.5,2884z"/>
		<path class="st35" d="M2041.5,2884c2.4-43.4-9.9-104.1-28.7-121.5c-12.6-10.2-79.3,31.5-46.7,62.4c13.1,7,39.4,31.4,53,70.7"/>
		<path class="st34" d="M1989.3,2773.5c29.5,21,24.4,84.4,36.5,113.4l-2.7,0.7c0,0-17.2-49.5-46.7-62.6"/>
		<path class="st26" d="M2010.6,2833c1,5.4,0.8,10.3-1.3,11.3c-2,1-4.1,0.4-8-5.5c-3.9-6-3.5-23.6-1.9-24.2
			C2005.8,2812.5,2009.8,2828,2010.6,2833z"/>
		<g>
			<g>
				<path class="st25" d="M1990.1,2772.4c16.9,12.1,22.2,35.3,26,54.6c2.9,15,4.5,30,7.8,44.8c1.1,4.8,2.4,9.6,4.3,14.1
					c0.6,1.5-0.2,3.2-1.7,3.6c0,0-2.7,0.8-2.7,0.8c0,0-0.1,0-0.1,0c-1.4,0.3-2.7-0.4-3.2-1.7c-7-19.8-19.6-44.3-36.5-57.2
					c-2.6-2-5.4-3.7-8.3-5c-0.7-0.3-1-1.1-0.6-1.8c0.3-0.7,1.1-0.9,1.7-0.7c3.2,1.4,6.2,3.1,9,5c18,12.8,31.4,37,39.5,57.2
					c0,0,0.2,0.6,0.2,0.6l-3.2-1.7c0,0,2.7-0.7,2.7-0.7l-1.7,3.6c-1-2.5-1.8-5-2.5-7.5c-8.4-30.1-5.8-77.2-26.9-101
					c-1.7-1.8-3.5-3.4-5.4-4.9c-0.6-0.4-0.7-1.3-0.3-1.9C1988.7,2772.1,1989.5,2772,1990.1,2772.4L1990.1,2772.4z"/>
			</g>
		</g>
		<g>
			<g>
				<g>
					<path class="st25" d="M1973.4,2987.8c-5.2-4.1-10.9-7.4-17.2-9.4c-3.1-1-6.3-1.6-9.5-1.9c-2.1-0.2-4.3-0.3-6.4-0.3
						c-0.4,0-0.8,0-1.2,0c1.5-0.6,3.1-1,4.7-1.2c4.8-0.8,9.8-0.3,14.5,1.3C1964.3,2978.4,1970,2982.4,1973.4,2987.8L1973.4,2987.8z"
						/>
				</g>
			</g>
			<g>
				<g>
					<path class="st25" d="M1971.3,3000.5c-9.1-3.7-18.8-5.8-28.6-5.7c-1.9,0-3.8,0.1-5.7,0.2c-0.4,0-0.8,0-1.2,0
						c1.4-0.6,2.9-1.1,4.4-1.5c7.6-1.9,15.9-1.1,23.1,2C1966.2,2996.8,1969,2998.4,1971.3,3000.5L1971.3,3000.5z"/>
				</g>
			</g>
			<g>
				<g>
					<path class="st25" d="M1969.4,3011.6c-8.3-1-16.6-0.6-24.7,1.6c-0.9,0.2-1.8,0.5-2.6,0.7c-0.3,0.1-0.6,0.2-0.9,0.2
						c0.9-0.8,2-1.5,3.1-2.1c5.4-3.1,12-4.1,18.2-2.9C1964.9,3009.5,1967.3,3010.2,1969.4,3011.6L1969.4,3011.6z"/>
				</g>
			</g>
		</g>
		<g>
			<g>
				<g>
					<path class="st25" d="M2197.6,2987.7c3.4-5.5,9.2-9.4,15.2-11.6c4.6-1.6,9.6-2.1,14.5-1.3c1.6,0.3,3.1,0.7,4.7,1.2
						c-0.4,0-0.8,0-1.2,0c-2.1,0-4.3,0.1-6.4,0.3c-3.2,0.3-6.4,1-9.5,1.9C2208.6,2980.3,2202.8,2983.6,2197.6,2987.7L2197.6,2987.7z
						"/>
				</g>
			</g>
			<g>
				<g>
					<path class="st25" d="M2199.8,3000.3c2.3-2.1,5.1-3.7,7.9-4.9c7.2-3.1,15.5-3.9,23.1-2c1.5,0.4,3,0.9,4.4,1.5
						c-0.4,0-0.8,0-1.2,0c-1.9-0.1-3.8-0.2-5.7-0.2C2218.5,2994.6,2208.8,2996.7,2199.8,3000.3L2199.8,3000.3z"/>
				</g>
			</g>
			<g>
				<g>
					<path class="st25" d="M2201.7,3011.4c2.1-1.4,4.5-2.1,7-2.6c6.1-1.2,12.7-0.2,18.2,2.9c1.1,0.6,2.1,1.3,3.1,2.1
						c-0.3-0.1-0.6-0.2-0.9-0.2c-0.9-0.2-1.8-0.5-2.6-0.7C2218.3,3010.8,2210,3010.4,2201.7,3011.4L2201.7,3011.4z"/>
				</g>
			</g>
		</g>
		<path class="st20" d="M2102,3066.5c46.9-2.9,86.7-15.9,100.6-45.4c9.8-20.7-1.5-41.5-1.5-41.6c-0.3-1.2,4.8-87.2-61.7-117.3
			c-18.7-8.5-36.3-10.7-53.7-10.9c-17.4,0.2-35,2.5-53.7,11c-66.4,30.1-61.3,116.1-61.5,117.4c0,0-11.2,20.9-1.4,41.6
			c13.9,29.4,53.7,42.4,100.6,45.2L2102,3066.5z"/>
		<path class="st20" d="M2202.5,3021.1c-2.3,4.9-5.3,9.3-8.9,13.3c-18.3,20.2-52.5,29.7-91.7,32.1l-32.3,0
			c-39.2-2.3-73.4-11.8-91.7-32c-3.6-4-6.6-8.4-8.9-13.2c-9.8-20.7,1.4-41.5,1.4-41.6c0.3-1.2-4.9-87.2,61.5-117.4
			c18.7-8.5,36.3-10.8,53.7-11c17.4,0.2,35,2.4,53.7,10.9c66.5,30,61.4,116,61.7,117.3C2201,2979.6,2212.3,3000.5,2202.5,3021.1z"/>
		<path class="st24" d="M2193.6,3034.4c-18.3,20.2-52.5,29.7-91.7,32.1l-32.3,0c-39.2-2.3-73.4-11.8-91.7-32
			c17.9,8.3,56,22.4,107.9,22.4C2137.6,3056.9,2175.7,3042.7,2193.6,3034.4z"/>
		<g>
			<g>
				<path class="st25" d="M2102,3066.5c4.9-1.1,9.7-1.9,14.6-2.9c5.6-1.1,11.3-2.2,16.8-3.5c14.6-3.2,29.1-7.6,42-15.1
					c4.4-2.6,8.6-5.6,12.4-9.1c0,0,1.7-1.6,1.7-1.6l0.4-0.4c0.6-0.6,1.4-1.5,2-2.1c0.5-0.6,1.4-1.6,1.9-2.2c0.6-0.8,1.2-1.6,1.8-2.3
					c0.5-0.7,1.5-2.2,1.9-2.9c0.3-0.5,0.9-1.5,1.2-2c0,0,0.5-1,0.5-1l0.5-1l0.1-0.3l0.1-0.3l0.2-0.5c0.6-1.3,1.2-2.9,1.7-4.3
					c0.4-1.2,0.7-2.6,1-3.9l0.1-0.6l0.2-1.1l0.2-1.1l0.1-0.6l0.1-0.6l0.1-1.2c0.6-8.4-1.2-16.9-4.7-24.5c0,0-0.1-0.3-0.1-0.3
					l-0.1-0.1l0-0.1c-0.1-0.2-0.3-0.8-0.3-1.1l0,0.3c-0.1-0.4-0.1-0.9-0.1-1.3c0-3.8,0-7.5-0.2-11.3c-2.3-42.1-19.4-84.8-60-102.8
					c-12.7-5.8-26.5-9-40.4-10.1c-4.9-0.4-10.1-0.6-15-0.5c-15.5,0.4-31,2.9-45.3,8.9c-18.1,7.1-33.5,19.9-43.9,36.4
					c-14.9,23.5-20.5,52-20.3,79.6c0,0.4,0,0.9-0.1,1.3l0-0.3c0,0.2-0.1,0.4-0.1,0.6c0,0.2-0.2,0.5-0.2,0.5
					c-1.4,2.8-2.4,5.7-3.2,8.7c-1.5,5.6-2.2,11.6-1.6,17.4c0,0.6,0.2,1.7,0.3,2.3l0.2,1.1l0.1,0.6c0.2,0.9,0.4,1.9,0.7,2.8
					c0.4,1.5,0.9,2.9,1.5,4.3c0.2,0.5,0.6,1.3,0.8,1.8c0,0,0.1,0.3,0.1,0.3l0.5,1c0.3,0.6,0.8,1.5,1.1,2c0.4,0.6,0.8,1.4,1.2,2
					c0,0,1.3,1.9,1.3,1.9c0.6,0.8,1.2,1.6,1.8,2.3c0.5,0.6,1.3,1.6,1.9,2.2c0.6,0.6,1.4,1.5,2,2.1c0,0,0.4,0.4,0.4,0.4l1.7,1.6
					l1.8,1.6c3,2.5,6.2,4.9,9.7,6.9c0.9,0.6,2.2,1.3,3.1,1.8c3.1,1.7,6.4,3.3,9.7,4.7c1.3,0.5,3.2,1.3,4.5,1.8
					c2.1,0.8,4.7,1.7,6.9,2.4c11.6,3.7,23.7,6,35.7,8.4c2.9,0.6,6.9,1.3,9.7,1.9c1.6,0.3,3.3,0.6,4.9,1c-6.6,0.6-13.4,0.5-20,0.1
					c-10-0.7-19.9-2.5-29.6-5.2c-0.6-0.2-3-0.9-3.6-1.1c-1.1-0.3-2.6-0.8-3.6-1.2c0,0-2.4-0.8-2.4-0.8l-1.2-0.4
					c-1.1-0.4-2.5-0.9-3.5-1.4c-2.3-1-4.7-2-7-3.1c-0.6-0.3-2.8-1.4-3.4-1.8c0,0-1.1-0.6-1.1-0.6l-1.1-0.6c-0.9-0.6-2.3-1.4-3.3-2
					c0,0-2.1-1.4-2.1-1.4c-1-0.7-2.1-1.5-3.1-2.3c-0.7-0.5-1.8-1.5-2.5-2c0,0-0.5-0.4-0.5-0.4l-1.9-1.7c-0.6-0.6-2.2-2.1-2.8-2.7
					c-0.4-0.4-1.4-1.5-1.8-1.9c-0.6-0.7-1.5-1.8-2.1-2.5c-0.6-0.9-1.3-1.8-1.9-2.6c0,0-1.4-2.2-1.4-2.2c-0.5-0.8-0.8-1.4-1.3-2.2
					c-0.6-1-1.2-2.4-1.8-3.5c0,0-0.1-0.3-0.1-0.3l-0.1-0.3l-0.3-0.6l-0.5-1.2l-0.5-1.2c-0.9-2.5-1.6-5.1-2.1-7.6
					c0,0-0.2-1.3-0.2-1.3l-0.2-1.3l-0.1-0.7l-0.1-0.7l-0.1-1.3l-0.1-1.3c-0.3-8.9,1.7-17.8,5.5-25.9c0,0,0.2-0.3,0.2-0.3l0.1-0.2
					l0-0.1c0,0-0.1,0.3-0.2,0.4c-0.1,0.2-0.1,0.4-0.1,0.5l0-0.3c0,0.1,0,0.2,0,0.3c0,0.2,0,0,0,0l0-0.1l0-0.4
					c-0.2-16.3,1.8-32.6,6.2-48.4c12.4-44.1,41.4-72,86.9-79.8c8.2-1.4,16.5-2,24.8-2.1c4,0.1,8.4,0.2,12.4,0.5
					c15.6,1.2,31,5,45,11.9c40.6,19.5,58,63.3,60.3,106.1c0.2,4,0.3,8.1,0.2,12.1c0,0,0,0.1,0,0c0-0.1,0-0.2,0-0.3l0,0.3
					c0-0.2,0-0.4-0.1-0.5c0-0.1-0.2-0.4-0.2-0.4l0,0.1c3.7,7.7,5.8,16.5,5.8,25c0,0.7-0.1,1.9-0.1,2.6c-0.1,0.8-0.1,1.9-0.2,2.6
					c-0.1,1-0.3,2.3-0.5,3.3c0,0-0.1,0.6-0.1,0.6l-0.3,1.3c-0.5,2.1-1.2,4.3-2,6.3c-0.3,0.6-0.7,1.6-0.9,2.1c-0.6,1.2-1.3,2.6-2,3.8
					c-0.4,0.7-0.9,1.6-1.3,2.2c0,0-1.4,2.2-1.4,2.2c-0.6,0.9-1.3,1.8-1.9,2.6c-0.6,0.7-1.5,1.8-2.1,2.5c-0.6,0.7-1.6,1.7-2.2,2.4
					c0,0-0.5,0.5-0.5,0.5l-1.9,1.8c-0.4,0.4-2.1,1.8-2.4,2.2c0,0-0.5,0.4-0.5,0.4c-0.5,0.4-1.5,1.2-2,1.6c-1,0.7-2.1,1.6-3.1,2.3
					c0,0-2.1,1.4-2.1,1.4c-1,0.6-2.3,1.4-3.3,2c-1.1,0.6-2.3,1.3-3.4,1.9c-6.7,3.5-13.9,6.3-21.2,8.5
					C2137.2,3065.6,2119.4,3067.9,2102,3066.5L2102,3066.5z"/>
			</g>
		</g>
		<polygon class="st36" points="2086.9,2997.8 2086.6,2997.8 2086.6,2997.7 		"/>
		<polygon class="st36" points="2087.2,2997.7 2087.2,2997.8 2086.9,2997.8 		"/>
		<ellipse class="st37" cx="2171.6" cy="3004" rx="22.8" ry="17.1"/>
		<ellipse class="st37" cx="1999.9" cy="3004.1" rx="22.8" ry="17.1"/>
		<g>
			<g>
				<path class="st20" d="M2003.6,2882.2c31-31.5,62.8-25.2,66.9-54.6c0,0,13.6,9,11.2,22c3.9-3,9-8.7,28.3-5.9
					c17.1,2.4,24.9-4.2,25.9-3.9c0.9,0.3,0.9,21.1-23.2,25.9"/>
				<path class="st25" d="M2001.7,2880.3c10.6-11,23.8-19,37.5-25.4c13.3-6.5,26.5-11.1,28.6-27.7c0.3-2.1,2.7-3,4.4-1.7
					c0.1,0.1,0.4,0.3,0.6,0.4c5.4,4.2,10,9.8,11.5,16.7c0.5,2.4,0.5,5,0.1,7.5l-4.3-2.6c1.5-1.2,3.3-2.7,5.1-3.7
					c7.5-4.3,16.6-3.9,24.9-2.8c0.9,0.1,1.9,0.3,2.8,0.3c6.9,0.7,14-0.2,20.3-3.3c0,0,0.7-0.3,0.7-0.3c0.1-0.1,0.3-0.1,0.4-0.2
					c0.5-0.2,1-0.4,1.7-0.4c0.6,0,1.1,0.2,1.6,0.6c0.6,0.5,1,1.3,1.2,2c0.2,1,0.2,2,0.1,2.9c-0.1,2.3-0.5,4.4-1.2,6.5
					c-3.5,10.4-14.4,16.5-24.9,16.6c0.5-0.2,0.9-0.4,1.4-0.6c1.4-0.6,2.7-1.2,4-1.9c7.8-4,12.6-10.1,14.9-18.5
					c0.3-1.3,0.6-2.7,0.5-4c0,0,0,0.1,0,0.1l0,0.1c0.1,0.2,0.2,0.4,0.3,0.6c0.4,0.5,1.1,0.9,1.7,1c0.1,0,0.1,0,0.2,0
					c0.1,0,0.1,0,0.2,0c0.4,0,0.4-0.1,0.5-0.1c0.1,0,0,0,0,0c-0.1,0-0.2,0.1-0.3,0.1c-7.3,3.8-15.7,4.9-23.7,4.1
					c-0.7-0.1-1.6-0.2-2.3-0.3c-4-0.6-8.1-0.9-12-0.7c-4.5,0.3-8.8,1.4-12.4,4.2c-0.7,0.5-1.4,1.2-2.3,1.8c-1.9,1.5-4.7-0.2-4.3-2.6
					c1.4-7.6-3.8-14.6-9.5-19c0,0-0.3-0.2-0.3-0.2l-0.3-0.2l4.1-1.9c-1.1,8.3-4.9,15.5-11.6,20.7c-9.1,7-20,10.5-29.9,16
					c-9.6,5.1-18.5,11.6-26.2,19.4c-1,1.1-2.7,1.1-3.8,0C2000.7,2883,2000.7,2881.3,2001.7,2880.3L2001.7,2880.3z"/>
			</g>
		</g>
		<g>
			<g>
				<path class="st25" d="M2071.4,2857.6c1.8-1.3,3.5-2.7,4.8-4.4c1.4-1.7,2.3-3.5,3.4-5.4l4.1,3.5c-0.9,0.7-1.8,1.4-2.7,2.1
					C2078.2,2855.6,2074.8,2856.9,2071.4,2857.6L2071.4,2857.6z"/>
			</g>
		</g>
		<path class="st25" d="M2027,2914.7c1.1-5.3,10.7-23.4,21.2-16.4c3.7,2.5,3.4,10-1.5,11.6C2039.7,2912.1,2038.1,2911.2,2027,2914.7
			z"/>
		<path class="st25" d="M2144.4,2914.6c-1.1-5.3-10.8-23.4-21.3-16.4c-3.7,2.5-3.4,10,1.5,11.6
			C2131.7,2912,2133.3,2911.2,2144.4,2914.6z"/>
		<path class="st20" d="M2009.4,2778.2c0.9,26.4-13,96.3-45.3,99.1c-40.4,3.6-48.9-79.9-39.1-102.8c9.6-22.4,63.7-30.7,87.9-12.1
			L2009.4,2778.2z"/>
		<path class="st20" d="M1958.7,2870.6c-7.1-1.1-13.4-6.4-18.6-15.8c-12.9-23.2-14.7-64.2-8.9-77.6c5.4-12.6,32.9-21.1,56.5-17.5
			c6.9,1,12.9,3,17.7,5.8l-2.7,12.1l0,0.8c0.9,26.3-13.4,89.9-39.2,92.3C1961.9,2870.9,1960.3,2870.8,1958.7,2870.6z"/>
		<path class="st24" d="M1963.5,2870.7c-1.7,0.1-3.3,0.1-4.8-0.1c-7.1-1.1-13.4-6.4-18.6-15.8c-1.2-2.1-2.2-4.3-3.2-6.6
			c5.3,7.4,11.4,11.7,18.1,12.7c1.8,0.3,3.7,0.3,5.6,0.1c21-1.9,35.4-38.7,41.7-71C1999.8,2819.9,1986.1,2868.7,1963.5,2870.7z"/>
		<g>
			<g>
				<path class="st25" d="M2009.4,2778.2c3.2,28.5-10,98.1-44.7,102.1c-12.4,1.4-22.6-5.2-29.4-15c-14.6-20.8-19.4-58.7-15.1-83.5
					c0.7-3.7,1.7-7.5,3.7-10.8c9.1-15.1,32.4-20.8,48.9-21.4c10.9-0.4,22,0.9,32.1,5.2c3.4,1.5,6.7,3.3,9.7,5.6
					c1.2,0.9,1.4,2.6,0.5,3.8c-0.9,1.2-2.6,1.4-3.8,0.5c-5.2-4-11.6-6.5-18.1-8c-16.5-3.5-34.5-1.9-49.9,5
					c-5.8,2.7-11.6,6.6-14.9,12.1c-4.2,7.5-4.5,20.9-4.4,29.5c0.6,20.8,6.2,51.7,22.7,65.7c4.9,4.1,11.1,6.1,17.4,5.4
					C1993.7,2871.5,2008,2803,2009.4,2778.2L2009.4,2778.2z"/>
			</g>
		</g>
		<g>
			<g>
				<ellipse class="st25" cx="2036.8" cy="2970.9" rx="22" ry="25.4"/>
			</g>
			<g>
				<ellipse class="st20" cx="2042.8" cy="2963.6" rx="7.2" ry="9.1"/>
			</g>
			<g class="st10">
				<ellipse class="st20" cx="2028.6" cy="2979.5" rx="4" ry="6.1"/>
			</g>
		</g>
		<g>
			<g>
				<path class="st25" d="M2160.5,2961.4c-3.8-1-7.9-1.7-11.8-1.3c-11.2,0.9-20.3,9-26,18.3c0,0-5.1-5.3-5.1-5.3
					c3-1.4,6.3-2.5,9.6-3c9.8-1.7,20,1.7,27.5,7.9c-8.6-2.2-17.5-3.8-26-1.2c-2.7,0.8-5.2,1.9-7.7,3.2c-3.2,1.7-6.8-1.7-5.3-5
					c1-2.2,2.3-4.2,3.7-6.1c6.8-8.9,18.1-15.3,29.5-13.2C2153.2,2956.5,2157.3,2958.5,2160.5,2961.4L2160.5,2961.4z"/>
			</g>
		</g>
		<g>
			<path class="st38" d="M2014.8,3053.1c-6-51.7,35.7-66.1,96.9-54.2c53.2,10.3,63.4,27.8,64.3,35.5c0.9,7.7-5.1,27-54.5,49.3
				C2064.7,3109.2,2020.8,3104.7,2014.8,3053.1z"/>
			<path class="st38" d="M2121.5,3083.7c-56.8,25.6-100.8,21.1-106.8-30.6c-4.1-35.7,14.5-53.6,46.5-57.3c7.5-0.9,15.8-1,24.6-0.4
				c8.1,0.6,16.8,1.8,25.8,3.5c0.4,0.1,0.8,0.1,1.1,0.2c52.2,10.4,62.3,27.6,63.2,35.3C2176.9,3042.1,2171,3061.4,2121.5,3083.7z"/>
			<path class="st39" d="M2112.8,2999.1c-0.1,15.4-23.2,16.4-27,2.3v-3.3c0,1.2,0,2.4,0,3.3c-3.8,14.5-28.1,13-26.9-3.6
				c0,0,0.7-0.9,2.3-2.1c7.5-0.9,15.8-1,24.6-0.4c8.1,0.6,16.8,1.8,25.8,3.5C2112.1,2999,2112.5,2999,2112.8,2999.1z"/>
			<path class="st40" d="M2080.7,3046.3c3,18.2,18.5,5.3,35.8,2.9s28.5-0.4,27.1-11.4s-11.6-5.1-29-2.7S2077.7,3028.1,2080.7,3046.3
				z"/>
			<path class="st40" d="M2053.1,3049.9c1.2,6.6,4.2,11.9,12.8,10.2c5.7-1.1,9.5-6.2,8.1-13c-1-5-4.5-10.1-10.3-9.3
				S2051.9,3042.7,2053.1,3049.9z"/>
			<path class="st39" d="M2019,3058.4c3.7,19.7,14,31.6,30.7,35.6c3.6,0.8,7.4,1.3,11.6,1.4c3.2,0.1,6.7,0,10.3-0.4
				c14.1-1.4,30.4-6.3,48.6-14.5c3.1-1.4,6.2-2.9,9.2-4.3c20.1-10,30.9-19,36.8-26c-7.9,3.9-17.8,7.9-30.2,11.8
				c-3.9,1.2-8,2.4-12.1,3.5c-23.9,6.5-45,9.3-62.6,8.3c-4.5-0.2-8.7-0.8-12.7-1.5c-5-0.9-9.7-2.3-13.9-4
				C2028.5,3065.8,2023.3,3062.5,2019,3058.4z"/>
			<path class="st39" d="M2025.9,3071.4c1.9,1.8,14.1,12.7,17.6-0.1c-3.1-0.8-6.1-1.8-8.9-2.9c-1.2-0.5-2.4-1-3.6-1.6
				C2030.1,3071.1,2028.3,3073.5,2025.9,3071.4z"/>
			<path class="st41" d="M2014.8,3053.1c-6-51.7,35.7-66.1,96.9-54.2c53.2,10.3,63.4,27.8,64.3,35.5c0.9,7.7-5.1,27-54.5,49.3
				C2064.7,3109.2,2020.8,3104.7,2014.8,3053.1z"/>
			<g>
				<g>
					<path class="st25" d="M2131,3040.4c-1.1-7-2.6-14-4.7-20.8c-1.6-5-3.4-9.9-6.3-14.3c-0.9-1.4-2-2.7-3.2-3.6l2.7-3
						C2127.8,3007.3,2130.2,3028.7,2131,3040.4L2131,3040.4z"/>
				</g>
			</g>
			<g>
				<g>
					<path class="st25" d="M2103.4,3068.9c1.7,6.8,2.3,14,0.4,20.8c-0.3,1-0.7,2-1.1,3l-3.5-2c2.1-3.1,3.2-6.6,3.8-10.3
						C2103.6,3076.7,2103.8,3072.8,2103.4,3068.9L2103.4,3068.9z"/>
				</g>
			</g>
			<g>
				<g>
					<path class="st25" d="M2150.1,3038.2c2.5,8.9,3.7,18.6,1.8,27.7c-0.3,1.3-0.7,2.7-1.1,4l-3.7-1.6c2.3-4.5,3.3-9.5,3.7-14.6
						C2151.1,3048.6,2150.9,3043.4,2150.1,3038.2L2150.1,3038.2z"/>
				</g>
			</g>
			<g>
				<g>
					<path class="st25" d="M2073.9,3029.6c-2-9.6-6.5-23.4-14.6-29.4c-1.2-0.9-2.5-1.5-3.8-1.9l1.4-3.8
						C2068.6,2999.7,2072.7,3018.1,2073.9,3029.6L2073.9,3029.6z"/>
				</g>
			</g>
			<g>
				<g>
					<path class="st25" d="M2070.7,3060.4c2.3,13,1.2,28.7-9.2,38.1c-0.7,0.6-1.5,1.2-2.2,1.8l-2.2-3.4
						C2069.2,3089.8,2071.8,3073.5,2070.7,3060.4L2070.7,3060.4z"/>
				</g>
			</g>
			<path class="st39" d="M2025.6,3071.1c-5.3-6.1-7.3-32.6-4.3-35.9c3.1-3.3,14.7,1.8,18.7,17.3
				C2042.9,3073.5,2028.4,3074.3,2025.6,3071.1z"/>
			<g>
				<path class="st42" d="M2035.8,3063.1c0,0-25.8,1.7-34.6,24.5c-6.5,16.8-13.3,11.6-15.8,9c-2.6-2.8-5.1-12.5,1.4-20.2
					c12.4-14.6,38-17.6,48.1-19.1"/>
				<path class="st43" d="M2034.9,3057.3l0.9,5.8c0,0-19.9,1.3-30.7,17.1c-1.5,2.2-2.8,4.6-3.8,7.3c-6.5,16.8-13.3,11.6-15.8,9
					c-2.6-2.8-5.1-12.5,1.4-20.2c6.5-7.6,16.5-12,26-14.8C2021.7,3059.1,2030.1,3058,2034.9,3057.3z"/>
				<path class="st44" d="M1991.7,3091.8c2.2,0-2.6-18.9,35.3-30c0,0,6.5-2.6-0.2-1C1991.6,3069.1,1988.7,3091.7,1991.7,3091.8z"/>
				<path class="st44" d="M2027,3061.7c-5.6,1.7-10.3,3.5-14.3,5.4c0.5-0.8,0.9-1.5,1-2.2c3.7-1.6,8.1-3.1,13-4.3
					C2033.4,3059.1,2027,3061.7,2027,3061.7z"/>
				<path class="st45" d="M2021.7,3059.4c-1.8,0.4-3.6,0.9-5.5,1.4c-9.5,2.7-19.6,7.2-26,14.8c-6.5,7.7-4,17.4-1.4,20.2
					c1,1.1,2.8,2.6,4.9,2.8c-3.7,2-6.8-0.5-8.3-2.1c-2.6-2.8-5.1-12.5,1.4-20.2c6.5-7.6,16.5-12,26-14.8
					C2015.9,3060.7,2018.9,3060,2021.7,3059.4z"/>
				<path class="st46" d="M2034.9,3057.3l0.9,5.8c0,0-19.9,1.3-30.7,17.1c1.6-4.1,3.8-8.8,6.7-11.9c2.6-2.8,2.3-5,1-6.7
					C2021.7,3059.1,2030.1,3058,2034.9,3057.3z"/>
				<path class="st47" d="M2027,3061.7c-5.6,1.7-10.3,3.5-14.3,5.4c0.5-0.8,0.9-1.5,1-2.2c3.7-1.6,8.1-3.1,13-4.3
					C2033.4,3059.1,2027,3061.7,2027,3061.7z"/>
				<path class="st48" d="M2035.8,3063.1c0,0-25.8,1.7-34.6,24.5c-6.5,16.8-13.3,11.6-15.8,9c-2.6-2.8-5.1-12.5,1.4-20.2
					c12.4-14.6,38-17.6,48.1-19.1"/>
				<path class="st42" d="M2034.4,3053.9c0,0-42.2-7.7-43-32c-0.2-7.7,2.8-9.8,5.4-9.8c4.7,0.1,5.7,7.6,7.8,12.1
					c7.1,15.2,19.7,17.8,30.9,22.9"/>
				<path class="st43" d="M1996.9,3012.1c3.9,0.1,5.3,5.4,6.8,9.8c0.3,0.8,0.6,1.6,0.9,2.3c7.1,15.2,19.7,17.8,30.9,22.9l-1.1,6.8
					c0,0-10.9-2-21.8-7.2c-10.5-5-20.8-12.9-21.2-24.9C1991.2,3014.2,1994.3,3012.1,1996.9,3012.1z"/>
				<path class="st44" d="M2029,3049.9c-32.1-10.9-34.9-31.2-32.8-31.6c2.1-0.3,1.5,18.9,33.3,30.6"/>
				<path class="st44" d="M2012.7,3040.3c4.3,3.1,9.7,6.1,16.8,8.7l-0.5,0.9c-6.2-2.1-11.3-4.6-15.5-7.1c-0.1-0.5-0.2-1.1-0.5-1.8
					C2012.9,3040.8,2012.8,3040.6,2012.7,3040.3z"/>
				<path class="st45" d="M1996.9,3012.1c1.2,0,2.1,0.5,2.9,1.3c-2.6,0.1-5.4,2.3-5.2,9.8c0.4,11.9,10.7,19.9,21.2,24.9
					c0.6,0.3,1.1,0.5,1.7,0.8c-1.6-0.6-3.3-1.3-4.9-2.1c-10.5-5-20.8-12.9-21.2-24.9C1991.2,3014.2,1994.3,3012.1,1996.9,3012.1z"/>
				<path class="st46" d="M2003.7,3021.9c0.3,0.8,0.6,1.6,0.9,2.3c7.1,15.2,19.7,17.8,30.9,22.9l-1.1,6.8c0,0-10.9-2-21.8-7.2
					c0.9-1.2,1.4-3,0.4-5.8C2011,3036,2002.5,3026.8,2003.7,3021.9z"/>
				<path class="st47" d="M2012.7,3040.3c4.3,3.1,9.7,6.1,16.8,8.7l-0.5,0.9c-6.2-2.1-11.3-4.6-15.5-7.1c-0.1-0.5-0.2-1.1-0.5-1.8
					C2012.9,3040.8,2012.8,3040.6,2012.7,3040.3z"/>
				<path class="st48" d="M2034.4,3053.9c0,0-42.2-7.7-43-32c-0.2-7.7,2.8-9.8,5.4-9.8c4.7,0.1,5.7,7.6,7.8,12.1
					c7.1,15.2,19.7,17.8,30.9,22.9"/>
				<path class="st42" d="M2033,3060.1c0,0-46.3,10.3-64.1-10.7c-14.8-17.5,5.4-29.8,18-19.3c11.7,9.7,21.5,17.3,46.8,19.6"/>
				<path class="st43" d="M1987,3030c7.8,6.4,14.7,11.9,25.8,15.6c5.7,1.9,12.5,3.2,21,4l-0.7,10.5c0,0-9.8,2.2-22.1,2.5
					c-14.4,0.4-32.4-1.9-42-13.2C1954.1,3031.8,1974.3,3019.5,1987,3030z"/>
				<path class="st45" d="M1981.6,3026.9c-11-1.2-21,9.3-9.3,23.1c4.9,5.8,11.9,9.2,19.6,11.1c-8.9-1.7-17.2-5.2-22.8-11.8
					C1956.1,3034.2,1969.5,3022.9,1981.6,3026.9z"/>
				<path class="st46" d="M2012.8,3045.5c5.7,1.9,12.5,3.2,21,4l-0.7,10.5c0,0-9.8,2.2-22.1,2.5
					C2015,3058.5,2019.5,3051.7,2012.8,3045.5z"/>
				<path class="st49" d="M2016.2,3052.2c4.4,0.6,9.3,1.1,14.5,1.4c1.3,2.3-0.3,1.8-0.3,1.8c-5.1,0-9.9-0.4-14.4-1.1
					C2016.2,3053.6,2016.2,3052.9,2016.2,3052.2z"/>
				<path class="st48" d="M2033,3060.1c0,0-46.3,10.3-64.1-10.7c-14.8-17.5,5.4-29.8,18-19.3c11.7,9.7,21.5,17.3,46.8,19.6"/>
				<path class="st44" d="M1972.9,3036.5c-0.6,1.6,22.8,18.5,57.5,18.8c0,0,1.6,0.5,0.3-1.8
					C1988.7,3051.6,1973.5,3034.9,1972.9,3036.5z"/>
				<path class="st47" d="M2016.2,3052.2c4.4,0.6,9.3,1.1,14.5,1.4c1.3,2.3-0.3,1.8-0.3,1.8c-5.1,0-9.9-0.4-14.4-1.1
					C2016.2,3053.6,2016.2,3052.9,2016.2,3052.2z"/>
			</g>
			<path class="st38" d="M2025.6,3071.1c4.6,4.7,7.4-7.5,5.3-18.9c-2.1-11.6-6.7-21.7-10.2-16.2c0,0,0.7-1.6,3.4-1.9
				c5.6-0.6,16.1,1.9,19.5,18.1C2048.6,3094.1,2025.6,3071.1,2025.6,3071.1z"/>
			<path class="st39" d="M2025.9,3071.4c1.9,1.8,14.1,12.7,17.6-0.1c-3.1-0.8-6.1-1.8-8.9-2.9c-1.2-0.5-2.4-1-3.6-1.6
				C2030.1,3071.1,2028.3,3073.5,2025.9,3071.4z"/>
			<g>
				<g>
					<path class="st25" d="M2025.6,3071.1c2,1.3,2.9,0.4,3.5-1.7c0.5-1.7,0.6-3.6,0.7-5.4c0.1-1.9,0-3.7-0.1-5.6
						c-0.2-2.8-0.6-5.6-1.2-8.3c-0.8-3.7-1.6-7.4-2.8-10.9c-0.5-1.3-1.3-3.6-2.7-4.2c-0.9-0.3-1.6,0.4-2.2,1
						c0.7-1.9,2.3-2.7,4.1-1.5c2.2,1.4,3.5,4,4.6,6.3c1.7,3.6,2.8,7.5,3.5,11.5c0.9,5.6,0.8,12.9-2.1,18
						C2029.7,3072.5,2027.3,3073.8,2025.6,3071.1L2025.6,3071.1z"/>
				</g>
			</g>
		</g>
		<g>
			<path class="st20" d="M2095.8,2995.8l-2.3,14.9c-0.3,1.8-1.9,3.2-3.7,3.2l-3.9,0l-3.9,0c-1.9,0-3.4-1.3-3.7-3.2l-2.3-14.9"/>
			<g>
				<g>
					<path class="st25" d="M2087.2,2996.6l-1.3,11.1l-1.3-11.1c-0.1-0.7,0.4-1.4,1.2-1.5C2086.6,2995,2087.3,2995.8,2087.2,2996.6
						L2087.2,2996.6z"/>
				</g>
			</g>
			<path class="st22" d="M2095.8,2995.8l-2.3,14.9c-0.3,1.8-1.9,3.2-3.7,3.2l-3.9,0l-3.9,0c-1.9,0-3.4-1.3-3.7-3.2l-2.3-14.9"/>
		</g>
		<path class="st20" d="M2114.9,2990.9c1.3,17.9-24.9,19.5-29,3.9c0-1.9,0-5.3,0-6.7h0c0,1.4,0,4.8,0,6.7c-4.1,15.6-30.3,14-29-3.9
			c0,0,8.9-10.5,29-10.5S2114.9,2990.9,2114.9,2990.9z"/>
		<path class="st20" d="M2114.9,2990.9c1.3,17.9-24.9,19.5-29,3.9c0-1.9,0-5.3,0-6.7h0c0,1.4,0,4.8,0,6.7c-4.1,15.6-30.3,14-29-3.9
			c0,0,8.9-10.5,29-10.5S2114.9,2990.9,2114.9,2990.9z"/>
		<path class="st24" d="M2058.9,2993.3c-0.2,1.1,3.4,7.8,11.1,8c7.5,0.2,11.2-5,10.8-7.5c-0.5-2.7-4.1-0.8-6.5,0.3
			C2063.3,2999.3,2059.1,2992.5,2058.9,2993.3z"/>
		<path class="st24" d="M2112.8,2993.3c0.2,1.1-3.4,7.8-11.1,8c-7.5,0.2-11.2-5-10.8-7.5c0.5-2.7,4.1-0.8,6.5,0.3
			C2108.5,2999.3,2112.7,2992.5,2112.8,2993.3z"/>
		<g>
			<g>
				<path class="st25" d="M2088.2,2988.1c0.2,1.7,0.3,3.3,0.3,5c0,0.8,0.2,1.6,0,2.4c-2.1,8.7-10.8,13.6-19.4,12.5
					c-6.2-0.7-12.1-4.9-12.9-11.4c-0.2-2,0-3.9,0.6-5.6c0.2,0.9,0.4,1.8,0.7,2.6c2.6,9,13.1,11.8,20.7,7.2c2.5-1.5,4.2-3.9,5-6.7
					c0,0-0.1,0.7-0.1,0.7c0-1.7,0.1-3.3,0.2-5c0-0.6,0.1-1.1,0.2-1.7C2083.9,2985.3,2087.8,2985.3,2088.2,2988.1L2088.2,2988.1z"/>
			</g>
		</g>
		<g>
			<g>
				<path class="st25" d="M2088.2,2987.5c0.2,1.5,0.3,3,0.4,4.6c0,0-0.1-0.5-0.1-0.5c0.8,1.9,2.6,3.5,5,4.6c7.6,3.1,18,1.2,20.7-5
					c0.3-0.6,0.5-1.2,0.7-1.8c0.6,1.2,0.9,2.5,0.6,3.9c-1.2,6.1-11,8.8-19,7.7c-6.4-0.8-11.8-4.1-13.3-8.5c-0.2-0.5,0-1,0-1.6
					c0-0.4,0.1-0.8,0.1-1.1c0.1-0.8,0.1-1.5,0.3-2.3C2083.9,2985.5,2087.9,2985.6,2088.2,2987.5L2088.2,2987.5z"/>
			</g>
		</g>
		<path class="st25" d="M2099.9,2981.1c-2.7,7.4-14.1,11.6-14.1,11.6s-11.4-4.2-14-11.6c-1.9-5.3,11.5-6.2,14.1-6.2
			C2088.4,2974.9,2101.8,2975.8,2099.9,2981.1z"/>
		<path class="st50" d="M2091.7,2977.6c-1.1,1.9-5.8,1.8-5.8,1.8s-4.7,0-5.8-1.8c-0.8-1.3,4.8-1.6,5.8-1.6
			C2086.9,2976.1,2092.5,2976.3,2091.7,2977.6z"/>
		<g>
			<g>
				<path class="st25" d="M2086.8,2985.6l1.3,8.5c0.2,1.3-0.7,2.5-2,2.7c-1.6,0.3-3-1.2-2.7-2.7c0,0,1.3-8.5,1.3-8.5
					C2085,2984.4,2086.6,2984.4,2086.8,2985.6L2086.8,2985.6z"/>
			</g>
		</g>
	</g>
</g>
</svg>
