<?xml version="1.0" encoding="utf-8"?>
<!-- Generator: Adobe Illustrator 25.4.1, SVG Export Plug-In . SVG Version: 6.00 Build 0)  -->
<svg version="1.1" xmlns="http://www.w3.org/2000/svg" xmlns:xlink="http://www.w3.org/1999/xlink" x="0px" y="0px"
	 viewBox="0 0 500 500" style="enable-background:new 0 0 500 500;" xml:space="preserve">
<style type="text/css">
	.st0{fill:#EBEBEB;}
	.st1{fill:#E0E0E0;}
	.st2{font-family:'Bebas';}
	.st3{font-size:12px;}
	.st4{display:none;}
	.st5{display:inline;}
	.st6{fill:#407BFF;}
	.st7{opacity:0.9;fill:#FFFFFF;enable-background:new    ;}
	.st8{fill:#F5F5F5;}
	.st9{opacity:0.1;fill:#FFFFFF;enable-background:new    ;}
	.st10{opacity:0.2;enable-background:new    ;}
	.st11{opacity:0.7;fill:#FFFFFF;enable-background:new    ;}
	.st12{fill:#263238;}
	.st13{fill:#EBB376;}
	.st14{opacity:0.6;fill:#FFFFFF;enable-background:new    ;}
	.st15{fill:#D58745;}
	.st16{fill:none;stroke:#263238;stroke-width:0.5572;stroke-linecap:round;stroke-linejoin:round;stroke-miterlimit:10;}
	.st17{opacity:0.4;enable-background:new    ;}
	.st18{opacity:0.2;fill:#FFFFFF;enable-background:new    ;}
	.st19{fill:#407BFF;enable-background:new    ;}
	.st20{opacity:0.3;fill:#FFFFFF;enable-background:new    ;}
	.st21{fill:#FFFFFF;}
	.st22{opacity:0.5;fill:#FFFFFF;enable-background:new    ;}
</style>
<g id="Background_Complete">
	<g>
		<rect y="382.4" class="st0" width="500" height="0.2"/>
		<rect x="416.8" y="398.5" class="st0" width="33.1" height="0.2"/>
		<rect x="322.5" y="401.2" class="st0" width="8.7" height="0.2"/>
		<rect x="396.6" y="389.2" class="st0" width="19.2" height="0.2"/>
		<rect x="52.5" y="390.9" class="st0" width="43.2" height="0.2"/>
		<rect x="104.6" y="390.9" class="st0" width="6.3" height="0.2"/>
		<rect x="131.5" y="395.1" class="st0" width="93.7" height="0.2"/>
		<path class="st0" d="M237,337.8H43.9c-3.1,0-5.7-2.6-5.7-5.7V60.7c0-3.1,2.6-5.7,5.7-5.7H237c3.1,0,5.7,2.6,5.7,5.7v271.4
			C242.7,335.2,240.2,337.8,237,337.8z M43.9,55.2c-3,0-5.5,2.4-5.5,5.5v271.4c0,3,2.4,5.5,5.5,5.5H237c3,0,5.5-2.4,5.5-5.5V60.7
			c0-3-2.4-5.5-5.5-5.5H43.9z"/>
		<path class="st0" d="M453.3,337.8H260.2c-3.1,0-5.7-2.6-5.7-5.7V60.7c0-3.1,2.6-5.7,5.7-5.7h193.1c3.1,0,5.7,2.6,5.7,5.7v271.4
			C459,335.2,456.5,337.8,453.3,337.8z M260.2,55.2c-3,0-5.5,2.4-5.5,5.5v271.4c0,3,2.4,5.5,5.5,5.5h193.1c3,0,5.5-2.4,5.5-5.5V60.7
			c0-3-2.4-5.5-5.5-5.5H260.2z"/>
	</g>
	<g>
		<g>
			<g>
				<path class="st1" d="M443.2,78.4v-4.3l-2.2-0.2c-0.3-1.4-0.9-2.8-1.6-4l1.4-1.7l-3-3l-1.7,1.4c-1.2-0.8-2.5-1.4-4-1.6l-0.2-2.2
					h-4.3l-0.2,2.2c-1.4,0.3-2.8,0.9-4,1.6l-1.7-1.4l-3,3l1.4,1.7c-0.8,1.2-1.4,2.5-1.6,4l-2.2,0.2l0,4.3l2.2,0.2
					c0.3,1.4,0.9,2.8,1.6,4l-1.4,1.7l3,3l1.7-1.4c1.2,0.8,2.5,1.4,4,1.6l0.2,2.2h4.3l0.2-2.2c1.4-0.3,2.8-0.9,4-1.6l1.7,1.4l3-3
					l-1.4-1.7c0.8-1.2,1.4-2.5,1.6-4L443.2,78.4z M429.7,82c-3.2,0-5.8-2.6-5.8-5.8c0-3.2,2.6-5.8,5.8-5.8c3.2,0,5.8,2.6,5.8,5.8
					C435.5,79.4,432.9,82,429.7,82z"/>
				<path class="st1" d="M460.6,90.5l0-3.4l-1.7-0.2c-0.2-1.1-0.7-2.2-1.3-3.1l1.1-1.3l-2.4-2.4l-1.3,1.1c-0.9-0.6-2-1.1-3.1-1.3
					l-0.2-1.7h-3.4l-0.2,1.7c-1.1,0.2-2.2,0.7-3.1,1.3l-1.3-1.1l-2.4,2.4l1.1,1.3c-0.6,0.9-1.1,2-1.3,3.1l-1.7,0.2l0,3.4l1.7,0.2
					c0.2,1.1,0.7,2.2,1.3,3.1l-1.1,1.3l2.4,2.4l1.3-1.1c0.9,0.6,2,1.1,3.1,1.3l0.2,1.7h3.4l0.2-1.7c1.1-0.2,2.2-0.7,3.1-1.3l1.3,1.1
					l2.4-2.4l-1.1-1.3c0.6-0.9,1.1-2,1.3-3.1L460.6,90.5z M450,93.4c-2.5,0-4.6-2-4.6-4.6c0-2.5,2-4.6,4.6-4.6c2.5,0,4.6,2,4.6,4.6
					C454.6,91.3,452.5,93.4,450,93.4z"/>
				<path class="st1" d="M443.2,100v-2.8l-1.5-0.1c-0.2-0.9-0.6-1.8-1.1-2.6l0.9-1.1l-2-2l-1.1,0.9c-0.8-0.5-1.7-0.9-2.6-1.1
					l-0.1-1.5h-2.8l-0.1,1.5c-0.9,0.2-1.8,0.6-2.6,1.1l-1.1-0.9l-2,2l0.9,1.1c-0.5,0.8-0.9,1.7-1.1,2.6l-1.5,0.1l0,2.8l1.5,0.1
					c0.2,0.9,0.6,1.8,1.1,2.6l-0.9,1.1l2,2l1.1-0.9c0.8,0.5,1.7,0.9,2.6,1.1l0.1,1.5h2.8l0.1-1.5c0.9-0.2,1.8-0.6,2.6-1.1l1.1,0.9
					l2-2l-0.9-1.1c0.5-0.8,0.9-1.7,1.1-2.6L443.2,100z M434.3,102.5c-2.1,0-3.8-1.7-3.8-3.8s1.7-3.8,3.8-3.8c2.1,0,3.8,1.7,3.8,3.8
					S436.4,102.5,434.3,102.5z"/>
			</g>
		</g>
		<g>
			<polygon class="st1" points="50.5,381.5 72.8,233 72.8,381.5 78.8,381.5 78.8,232.1 101.2,381.5 107.6,381.5 79.6,194.4 
				78.8,194.6 78.8,188.5 72.8,188.5 72.8,194.5 72,194.4 43.9,381.5 			"/>
			<g>
				<polygon class="st0" points="106.6,215.2 44.7,215.2 49.7,163.5 101.6,163.5 				"/>
			</g>
		</g>
		<text transform="matrix(1 0 0 1 64.1133 78.4004)" class="st1 st2 st3">1011100010101000101010101010101010000000111111001011110101</text>
		<text transform="matrix(1 0 0 1 142.5619 319.291)" class="st1 st2 st3">1011100010101000101010101000111110101010000111010100000</text>
		<text transform="matrix(1 0 0 1 85.4505 115.4331)" class="st1 st2 st3">01010100010101010000000111111001011110101</text>
		<text transform="matrix(1 0 0 1 163.2411 361.4924)" class="st1 st2 st3">01010100010101010000000111111001011110101</text>
		<text transform="matrix(1 0 0 1 227.3091 339.1591)" class="st1 st2 st3">01010100010101010000000111111001011110101</text>
		<text transform="matrix(1 0 0 1 85.4505 133.9999)" class="st1 st2 st3">010101000101010101010101010000000111111001011110101</text>
	</g>
</g>
<g id="Background_Simple" class="st4">
	<g class="st5">
		<path class="st6" d="M74.5,123.9c11.6-17.4,28.9-30.5,50.4-32.2c21.1-1.7,41.6,9.2,56.5,23.3c44.4,42,49.2,124.2,112,147.1
			c26.2,9.6,53.1-2.9,78.8-8.2c20-4.1,40.7,2.7,44.6,25.1c4.4,25-12.7,51.4-26.6,70.6c-15.2,21-38.7,35.5-63.6,41.8
			c-52.4,13.2-109.7-5.5-155-31.7c-13.9-8.1-27.3-17.2-39.6-27.6c-48.7-41-83-103.3-73-168.4C61.1,150,66.5,136,74.5,123.9z"/>
		<path class="st7" d="M74.5,123.9c11.6-17.4,28.9-30.5,50.4-32.2c21.1-1.7,41.6,9.2,56.5,23.3c44.4,42,49.2,124.2,112,147.1
			c26.2,9.6,53.1-2.9,78.8-8.2c20-4.1,40.7,2.7,44.6,25.1c4.4,25-12.7,51.4-26.6,70.6c-15.2,21-38.7,35.5-63.6,41.8
			c-52.4,13.2-109.7-5.5-155-31.7c-13.9-8.1-27.3-17.2-39.6-27.6c-48.7-41-83-103.3-73-168.4C61.1,150,66.5,136,74.5,123.9z"/>
	</g>
</g>
<g id="Shadow_1_">
	<ellipse id="_x3C_Path_x3E__359_" class="st8" cx="250" cy="416.2" rx="193.9" ry="11.3"/>
</g>
<g id="Window">
	<g>
		<path class="st6" d="M444,92.6v201.2c0,4.8-4.2,9.1-9,9.1H145.4c-4.8,0-8.4-4.3-8.4-9.1V92.6c0-4.8,3.6-8.6,8.4-8.6H435
			C439.8,84,444,87.8,444,92.6z"/>
		<path class="st9" d="M444,117.7v176.2c0,4.8-4.2,9.1-9,9.1H145.4c-4.8,0-8.4-4.3-8.4-9.1v-68.6c25.5-49,86.2-56.9,157.3-28.3
			C395,237.6,437.9,182.5,444,117.7z"/>
	</g>
</g>
<g id="Bar">
	<g>
		<path class="st10" d="M364.9,280H218c-2.8,0-5-2.3-5-5l0,0c0-2.8,2.3-5,5-5h146.9c2.8,0,5,2.3,5,5l0,0
			C370,277.8,367.7,280,364.9,280z"/>
		<path class="st6" d="M218,279c-2.2,0-4-1.8-4-4s1.8-4,4-4h86.8c2.2,0,4,1.8,4,4s-1.8,4-4,4H218z"/>
		<path class="st11" d="M218,279c-2.2,0-4-1.8-4-4s1.8-4,4-4h86.8c2.2,0,4,1.8,4,4s-1.8,4-4,4H218z"/>
	</g>
</g>
<g id="Character">
	<g id="_x3C_Group_x3E__21_">
		<g>
			<path class="st12" d="M159.9,287.3c9.3,7.5,6.1,43.2,7.8,48.7s9.2,10,9.2,10l-10.5,12.2c0,0-8.7-1.5-15.4-15.8
				C144.5,328.2,159.9,287.3,159.9,287.3z"/>
			<path class="st10" d="M159.9,287.3c9.3,7.5,6.1,43.2,7.8,48.7s9.2,10,9.2,10l-10.5,12.2c0,0-8.7-1.5-15.4-15.8
				C144.5,328.2,159.9,287.3,159.9,287.3z"/>
		</g>
		<g>
			<path class="st6" d="M150,365.8c0,0,67-18.7,75.4,4.8c8.4,23.5-52.4,42.2-86,43.4s-47.4-22.4-37.5-44.9L150,365.8z"/>
			<path class="st10" d="M150,365.8c0,0,67-18.7,75.4,4.8c8.4,23.5-52.4,42.2-86,43.4s-47.4-22.4-37.5-44.9L150,365.8z"/>
		</g>
		<path class="st6" d="M215.7,403.8c-0.1,0-0.2,0-0.2,0c-0.1,0-0.1-0.1-0.1-0.2c0.1-0.4,1.2-3.6,2.4-3.9c0.2-0.1,0.5,0,0.7,0.2
			c0.3,0.3,0.5,0.7,0.4,1.1c-0.2,0.6-0.6,1.1-1.1,1.5C217.1,403,216.4,403.4,215.7,403.8z M216,403.2c1-0.5,1.9-1.3,2.4-2.3
			c0.1-0.3-0.1-0.6-0.3-0.7c-0.1-0.1-0.2-0.1-0.3-0.1c-0.1,0-0.2,0.1-0.3,0.2C216.8,401.1,216.3,402.1,216,403.2z"/>
		<path class="st6" d="M215.6,403.8c-0.1,0-0.2,0-0.2-0.1c-0.1-0.1-1.7-2.1-1.4-3.4c0.1-0.3,0.3-0.6,0.5-0.8
			c0.2-0.2,0.6-0.3,0.9-0.1c0.8,0.6,0.7,3.2,0.3,4.2l0,0.1C215.7,403.8,215.6,403.8,215.6,403.8z M214.7,400
			c-0.1,0.1-0.2,0.3-0.3,0.5c-0.2,0.8,0.6,2.1,1,2.7c0.3-1.1,0.2-3-0.3-3.3C215.1,399.8,215,399.8,214.7,400L214.7,400L214.7,400z"
			/>
		<path class="st6" d="M147.4,415.7c0-0.1,0.1-0.2,0.2-0.2c0.1,0,0.2,0,0.2,0.1c0.2,0.3,1.7,3.4,1.2,4.4c-0.1,0.2-0.4,0.3-0.6,0.3
			c-0.4,0-0.8-0.1-1.1-0.5c-0.3-0.6-0.4-1.2-0.3-1.8C147,417.3,147.2,416.5,147.4,415.7z M147.6,416.3c-0.4,1.1-0.4,2.3,0,3.3
			c0.2,0.2,0.4,0.4,0.7,0.3c0.1,0,0.2,0,0.2-0.1c0-0.1,0.1-0.2,0.1-0.3C148.5,418.4,148.2,417.3,147.6,416.3z"/>
		<polygon class="st13" points="163.6,393.1 151.8,401.8 146.1,405.9 149.8,412.4 155.6,409.3 169.7,401.5 		"/>
		<path class="st12" d="M151.6,412.2l-3.6-7.9c-0.2-0.4-0.7-0.6-1.2-0.4l-3.9,1.9c0,0-5.4,2.2-6,3.9c-2,5.1,5.5,22.8,7.8,22.8
			c0.9,0,1.4-1.3,1.5-2.2c0.4-2.7,0.4-9.4,0.8-11.6c0.4-2.6,3-4.6,4.2-5.4C151.7,413.1,151.8,412.6,151.6,412.2z"/>
		<path class="st6" d="M147.4,415.6c0-0.1,0.1-0.1,0.2-0.1c0.1,0,2.6,0.3,3.4,1.4c0.2,0.3,0.3,0.6,0.2,1c0,0.3-0.2,0.6-0.6,0.7
			c-1,0.2-2.8-1.7-3.2-2.7l-0.1-0.1C147.4,415.7,147.4,415.7,147.4,415.6z M150.8,417.7c0-0.2,0-0.4-0.1-0.5c-0.5-0.7-1.9-1-2.7-1.1
			c0.6,1,2,2.2,2.6,2.1C150.6,418.1,150.7,418.1,150.8,417.7L150.8,417.7L150.8,417.7z"/>
		<polygon class="st10" points="163.6,393.1 151.8,401.8 155.6,409.3 169.7,401.5 		"/>
		<g>
			<polygon class="st6" points="158.3,409.7 162.2,408.9 155.7,396.5 152.1,400.2 			"/>
			<polygon class="st14" points="158.3,409.7 162.2,408.9 155.7,396.5 152.1,400.2 			"/>
		</g>
		<polygon class="st13" points="188.2,408 202.7,410.4 209.6,411.6 211.6,404.4 205.3,402.5 190,397.8 		"/>
		<path class="st12" d="M210.2,403.2l-3.1,8.1c-0.2,0.5,0.1,1,0.5,1.1l4,1.4c0,0,5.3,2.3,7,1.6c5-2.2,12.4-19.8,10.8-21.5
			c-0.6-0.6-1.9,0-2.6,0.5c-2.2,1.6-7,6.3-8.9,7.6c-2.1,1.5-5.4,1.1-6.8,0.7C210.8,402.6,210.4,402.8,210.2,403.2z"/>
		<polygon class="st10" points="188.2,408 202.7,410.4 205.3,402.5 190,397.8 		"/>
		<path class="st6" d="M202.9,401c0,0-60.3-35.6-80.7-34.6c-20.4,0.9-22.2,21.2-13.8,32.5c8.4,11.3,24,14,24,14s-10.6-15-9.1-19.2
			c1.5-4.2,7.4,9.9,7.4,9.9s37.3,4.9,69.9,7.6L202.9,401z"/>
		<g>
			<polygon class="st6" points="203.8,400 200.5,397.8 196.2,411 201.3,411 			"/>
			<polygon class="st14" points="203.8,400 200.5,397.8 196.2,411 201.3,411 			"/>
		</g>
		<path class="st12" d="M157.9,372c-10.9-21-7.4-52.9,2-84.7c-6.6-5.5-32.9-9.2-53-3.4c0,0-12.7,47.2-11.2,98.8L157.9,372z"/>
		<path class="st13" d="M134.7,292.4c-8.8,0-14.5-9.2-14.5-9.2c11.5-4,11.5-16.2,11.5-16.2l4.4,4.3l6.3,6.2
			c-5.2,3.7-2.8,6.9-1.1,8.4c0.6,0.5,1.1,0.8,1.1,0.8S143.5,292.4,134.7,292.4z"/>
		<path class="st10" d="M141.4,285.9c-10.8,1.2-10-14.9-10-14.9c1.7,0,3.3,0.1,4.8,0.4l6.3,6.2C137.3,281.3,139.8,284.5,141.4,285.9
			z"/>
		<g>
			<path class="st12" d="M149.8,255c-4.1,1.7-3.3,6.1,3.5,14.2c4.2-3.6,6.4-11.7,4.2-14.4C155.4,252.2,153.4,253.5,149.8,255z"/>
			<path class="st13" d="M155.9,273C155.9,273,155.9,273,155.9,273c-0.4,1.2-0.8,2.2-1.3,3.2c-4,8.2-15.6,9.8-20.7,1.7
				c0,0,0-0.1-0.1-0.1c-3.4-5.5-2.1-10.5-0.7-19.4c0.3-1.9,1-3.6,2.1-5.2c3.9-5.5,11.4-6.8,17-3C158.8,254.9,158.4,265.5,155.9,273z
				"/>
			<path class="st12" d="M145.5,263.8c-0.2,0.7,0.1,1.4,0.6,1.5c0.5,0.1,1-0.4,1.1-1.1c0.2-0.7-0.1-1.4-0.5-1.5
				C146.2,262.5,145.7,263.1,145.5,263.8z"/>
			<path class="st12" d="M153.6,265.6c-0.2,0.7,0.1,1.4,0.6,1.5s1-0.4,1.1-1.1c0.2-0.7-0.1-1.4-0.6-1.5S153.7,264.9,153.6,265.6z"/>
			<path class="st15" d="M150.9,265.3c0.4,2.4,1,4.6,2,6.8c-1.5,0.9-3.5-0.1-3.5-0.1L150.9,265.3z"/>
			<path class="st12" d="M143.9,260.7c-0.1,0-0.2-0.1-0.3-0.1c-0.2-0.2-0.1-0.4,0-0.6c1-0.9,2.4-1.3,3.8-1c0.2,0.1,0.4,0.3,0.3,0.5
				c0,0,0,0,0,0c-0.1,0.2-0.3,0.3-0.5,0.3l0,0c-1.1-0.2-2.2,0.1-3,0.8C144.2,260.7,144,260.7,143.9,260.7z"/>
			<path class="st12" d="M157.9,263.7c-0.2,0-0.3-0.2-0.3-0.3c-0.2-1.1-0.9-2-1.9-2.4c-0.2-0.1-0.3-0.3-0.3-0.5
				c0.1-0.2,0.3-0.3,0.5-0.3c1.3,0.5,2.2,1.7,2.5,3c0.1,0.2-0.1,0.5-0.3,0.5c0,0,0,0,0,0C158,263.7,157.9,263.7,157.9,263.7z"/>
			<path class="st12" d="M138.3,251.5c3.8,2.3,2.3,6.6-5.7,13.5c-3.5-4.2-4.5-12.6-1.9-14.8C133.3,247.9,135,249.5,138.3,251.5z"/>
			<path class="st13" d="M127.4,264.5c0.1,2.2,1.2,4.3,2.8,5.8c2.2,2,4.6,0.3,5.1-2.5c0.4-2.5-0.3-6.5-3-7.4
				C129.5,259.5,127.2,261.7,127.4,264.5z"/>
			<path class="st16" d="M142.5,272.1c0,0,0.9,3.2,5.2,3.9"/>
			<path class="st16" d="M150.2,265.4c0,1.7-1.4,3-3,3c-1.7,0-3-1.4-3-3c0-1.7,1.4-3,3-3C148.8,262.3,150.2,263.7,150.2,265.4z"/>
			<path class="st16" d="M158.4,267c0,1.7-1.4,3-3,3c-1.7,0-3-1.4-3-3c0-1.7,1.4-3,3-3C157,264,158.4,265.4,158.4,267z"/>
			<path class="st16" d="M150.2,266.2c0,0,1.4-0.7,2.1,0.6"/>
			<path class="st16" d="M144.2,264.8c0,0-8.7-3.7-10.3-4"/>
			<path class="st12" d="M130.6,250.3c0,0-0.9-7.1,6.3-8.2c7.2-1.2,16.6,0.6,19.6-0.6c0,0-0.4,2.2-2.1,3.1c0,0,5.5,2,9.8,0.3
				c0,0-1.9,5.2-4.3,7.2h2.1c0,0-4.1,3.9-9.1,4c-5,0.1-9.7-6.8-14.6-4.5C133.3,253.8,130.6,250.3,130.6,250.3z"/>
			<path class="st17" d="M155.9,273C155.9,273,155.9,273,155.9,273c-0.4,1.2-0.8,2.2-1.3,3.2c-4,8.2-15.6,9.8-20.7,1.7
				c0,0,0-0.1-0.1-0.1c-2.6-4.7-0.5-9.8-0.5-9.8l1.5-5l1.1-1.1c0,0,0.3,5.1,1,6.5c0.8,1.4,5.3,1.9,6.2,2.1c0.9,0.2,3.1,2.9,4.2,3.5
				c1.1,0.7,5,0.1,5.5,0.7C153.3,275.3,155.9,273,155.9,273z"/>
		</g>
		<path class="st10" d="M110.9,353.5l20.7,23c0,0,22.9-0.5,50.8,13.1c0,0,29.9-12.3,32.6-22.6c2.7-10.2-62.7-3-62.7-3L110.9,353.5z"
			/>
		<path class="st13" d="M116.8,346.8l33.2,10.9c0,0,11.9-2.6,14-2.6s10.3,6.7,5.7,9c-4.6,2.3-17.3,2.6-18.7,1.9s-38.2-9.4-38.2-9.4
			L116.8,346.8z"/>
		<g>
			<path class="st12" d="M106.9,283.9c7.5-1.5-5.5,44.4-2.3,51.1c3.2,6.8,15.7,11,15.7,11l-5.8,12.7c0,0-17-3.2-26.2-15
				S94.6,286.3,106.9,283.9z"/>
			<path class="st10" d="M106.9,283.9c7.5-1.5-5.5,44.4-2.3,51.1c3.2,6.8,15.7,11,15.7,11l-5.8,12.7c0,0-17-3.2-26.2-15
				S94.6,286.3,106.9,283.9z"/>
		</g>
		<g>
			<polygon class="st12" points="120.2,345 113.2,358.7 119.2,360 124.8,347.4 			"/>
			<polygon class="st18" points="120.2,345 113.2,358.7 119.2,360 124.8,347.4 			"/>
		</g>
		<g>
			<g>
				<path class="st12" d="M134,364v2.2c0,1.5,1.2,2.8,2.7,2.8h80.4c1.5,0,2.9-1.4,2.9-2.8V364H134z"/>
				<path class="st18" d="M134,364v2.2c0,1.5,1.2,2.8,2.7,2.8h80.4c1.5,0,2.9-1.4,2.9-2.8V364H134z"/>
				<path class="st18" d="M164,364v2.2c0,1.5,1.2,2.8,2.7,2.8h50.4c1.5,0,2.9-1.4,2.9-2.8V364H164z"/>
			</g>
			<g>
				<path class="st12" d="M166.7,367h53.1c1.6,0,3.4-1.3,3.9-2.9l12.2-38.2c0.5-1.6-0.4-2.9-2-2.9h-53.1c-1.6,0-3.4,1.4-3.9,2.9
					l-12.2,38.2C164.2,365.7,165.1,367,166.7,367z"/>
				<path class="st18" d="M166.7,367h53.1c1.6,0,3.4-1.3,3.9-2.9l12.2-38.2c0.5-1.6-0.4-2.9-2-2.9h-53.1c-1.6,0-3.4,1.4-3.9,2.9
					l-12.2,38.2C164.2,365.7,165.1,367,166.7,367z"/>
				<path class="st18" d="M168.7,367h51.1c1.6,0,3.4-1.3,3.9-2.9l12.2-38.2c0.5-1.6-0.4-2.9-2-2.9h-51.1c-1.6,0-3.4,1.4-3.9,2.9
					l-12.2,38.2C166.2,365.7,167.1,367,168.7,367z"/>
			</g>
			<polygon class="st18" points="205.3,340.8 198,346 201.1,351.2 208.5,346 			"/>
		</g>
	</g>
</g>
<g id="Tab5">
	<g>
		<path class="st10" d="M242.1,178.4h-67.2c-4.8,0-8.7-3.9-8.7-8.7v-67.2c0-4.8,3.9-8.7,8.7-8.7h67.2c4.8,0,8.7,3.9,8.7,8.7v67.2
			C250.9,174.5,246.9,178.4,242.1,178.4z"/>
		<path class="st19" d="M253.6,155.4h-56.3c-4,0-7.3-3.3-7.3-7.3V91.7c0-4,3.3-7.3,7.3-7.3h56.3c4,0,7.3,3.3,7.3,7.3v56.3
			C260.9,152.1,257.6,155.4,253.6,155.4z"/>
		<g>
			<path class="st20" d="M253.6,155.4h-56.3c-4,0-7.3-3.3-7.3-7.3V91.7c0-4,3.3-7.3,7.3-7.3h56.3c4,0,7.3,3.3,7.3,7.3v56.3
				C260.9,152.1,257.6,155.4,253.6,155.4z"/>
			<g>
				<g>
					<path class="st21" d="M230.8,111.7l0-4.3l-2.2-0.2c-0.3-1.4-0.9-2.8-1.6-4l1.4-1.7l-3-3l-1.7,1.4c-1.2-0.8-2.5-1.4-4-1.6
						l-0.2-2.2h-4.3l-0.2,2.2c-1.4,0.3-2.8,0.9-4,1.6l-1.7-1.4l-3,3l1.4,1.7c-0.8,1.2-1.4,2.5-1.6,4l-2.2,0.2l0,4.3l2.2,0.2
						c0.3,1.4,0.9,2.8,1.6,4l-1.4,1.7l3,3l1.7-1.4c1.2,0.8,2.5,1.4,4,1.6l0.2,2.2h4.3l0.2-2.2c1.4-0.3,2.8-0.9,4-1.6l1.7,1.4l3-3
						l-1.4-1.7c0.8-1.2,1.4-2.5,1.6-4L230.8,111.7z M217.3,115.4c-3.2,0-5.8-2.6-5.8-5.8c0-3.2,2.6-5.8,5.8-5.8
						c3.2,0,5.8,2.6,5.8,5.8C223.1,112.8,220.5,115.4,217.3,115.4z"/>
					<path class="st21" d="M248.3,123.8l0-3.4l-1.7-0.2c-0.2-1.1-0.7-2.2-1.3-3.1l1.1-1.3l-2.4-2.4l-1.3,1.1c-0.9-0.6-2-1.1-3.1-1.3
						l-0.2-1.7H236l-0.2,1.7c-1.1,0.2-2.2,0.7-3.1,1.3l-1.3-1.1l-2.4,2.4l1.1,1.3c-0.6,0.9-1.1,2-1.3,3.1l-1.7,0.2v3.4l1.7,0.2
						c0.2,1.1,0.7,2.2,1.3,3.1l-1.1,1.3l2.4,2.4l1.3-1.1c0.9,0.6,2,1.1,3.1,1.3l0.2,1.7h3.4l0.2-1.7c1.1-0.2,2.2-0.7,3.1-1.3
						l1.3,1.1l2.4-2.4l-1.1-1.3c0.6-0.9,1.1-2,1.3-3.1L248.3,123.8z M237.7,126.7c-2.5,0-4.6-2-4.6-4.6c0-2.5,2-4.6,4.6-4.6
						c2.5,0,4.6,2,4.6,4.6C242.2,124.7,240.2,126.7,237.7,126.7z"/>
					<path class="st21" d="M230.8,133.4l0-2.8l-1.5-0.1c-0.2-0.9-0.6-1.8-1.1-2.6l0.9-1.1l-2-2l-1.1,0.9c-0.8-0.5-1.7-0.9-2.6-1.1
						l-0.1-1.5h-2.8l-0.1,1.5c-0.9,0.2-1.8,0.6-2.6,1.1l-1.1-0.9l-2,2l0.9,1.1c-0.5,0.8-0.9,1.7-1.1,2.6l-1.5,0.1v2.8l1.5,0.1
						c0.2,0.9,0.6,1.8,1.1,2.6l-0.9,1.1l2,2l1.1-0.9c0.8,0.5,1.7,0.9,2.6,1.1l0.1,1.5h2.8l0.1-1.5c0.9-0.2,1.8-0.6,2.6-1.1l1.1,0.9
						l2-2l-0.9-1.1c0.5-0.8,0.9-1.7,1.1-2.6L230.8,133.4z M222,135.8c-2.1,0-3.8-1.7-3.8-3.8c0-2.1,1.7-3.8,3.8-3.8
						c2.1,0,3.8,1.7,3.8,3.8C225.8,134.1,224.1,135.8,222,135.8z"/>
				</g>
			</g>
		</g>
		<path class="st18" d="M256.6,155.4h-56.3c-4,0-7.3-3.3-7.3-7.3V91.7c0-4,3.3-7.3,7.3-7.3h56.3c4,0,7.3,3.3,7.3,7.3v56.3
			C263.9,152.1,260.6,155.4,256.6,155.4z"/>
	</g>
</g>
<g id="Tab4">
	<g>
		<path class="st10" d="M364.2,254.3h-62.2c-4.5,0-8.1-3.6-8.1-8.1V184c0-4.5,3.6-8.1,8.1-8.1h62.2c4.5,0,8.1,3.6,8.1,8.1v62.2
			C372.3,250.7,368.7,254.3,364.2,254.3z"/>
		<path class="st19" d="M372.5,237.4h-52.1c-3.7,0-6.8-3-6.8-6.8v-52.1c0-3.7,3-6.8,6.8-6.8h52.1c3.7,0,6.8,3,6.8,6.8v52.1
			C379.3,234.4,376.3,237.4,372.5,237.4z"/>
		<g>
			<path class="st18" d="M372.5,237.4h-52.1c-3.7,0-6.8-3-6.8-6.8v-52.1c0-3.7,3-6.8,6.8-6.8h52.1c3.7,0,6.8,3,6.8,6.8v52.1
				C379.3,234.4,376.3,237.4,372.5,237.4z"/>
			<g>
				<path class="st21" d="M349,215.1c0,1.3-1.1,2.4-2.4,2.4c-1.3,0-2.4-1.1-2.4-2.4c0-1.3,1.1-2.4,2.4-2.4
					C347.9,212.7,349,213.8,349,215.1z"/>
				<path class="st21" d="M346.4,191.5c-13,0-23.5,10.5-23.5,23.5h18.8c0-3,2.1-4.6,4.7-4.6c0.5,0,1,0.1,1.4,0.3l8.8-10.2l-6.2,12.1
					c0.5,0.7,0.7,1.5,0.7,2.5H370C370,202,359.4,191.5,346.4,191.5z"/>
			</g>
		</g>
		<path class="st18" d="M375.3,237.4h-52.1c-3.7,0-6.8-3-6.8-6.8v-52.1c0-3.7,3-6.8,6.8-6.8h52.1c3.7,0,6.8,3,6.8,6.8v52.1
			C382.1,234.4,379.1,237.4,375.3,237.4z"/>
	</g>
</g>
<g id="Tab3">
	<g>
		<path class="st10" d="M383.3,182.1h-54.5c-3.9,0-7.1-3.2-7.1-7.1v-54.5c0-3.9,3.2-7.1,7.1-7.1h54.5c3.9,0,7.1,3.2,7.1,7.1V175
			C390.4,178.9,387.3,182.1,383.3,182.1z"/>
		<path class="st19" d="M391.8,164.9h-45.7c-3.3,0-5.9-2.7-5.9-5.9v-45.7c0-3.3,2.7-5.9,5.9-5.9h45.7c3.3,0,5.9,2.7,5.9,5.9v45.7
			C397.7,162.2,395.1,164.9,391.8,164.9z"/>
		<g>
			<path class="st9" d="M391.8,164.9h-45.7c-3.3,0-5.9-2.7-5.9-5.9v-45.7c0-3.3,2.7-5.9,5.9-5.9h45.7c3.3,0,5.9,2.7,5.9,5.9v45.7
				C397.7,162.2,395.1,164.9,391.8,164.9z"/>
			<g>
				<path class="st21" d="M385,121.9c0-1-0.8-1.9-1.9-1.9h-28.2c-1,0-1.9,0.8-1.9,1.9v6.2c0,1,0.8,1.9,1.9,1.9h28.2
					c1,0,1.9-0.8,1.9-1.9V121.9z M375.7,125.3h-1.6v-1.6h1.6V125.3z M380,126.1c-0.9,0-1.6-0.7-1.6-1.6s0.7-1.6,1.6-1.6
					c0.9,0,1.6,0.7,1.6,1.6S380.9,126.1,380,126.1z"/>
				<path class="st21" d="M385,132.9c0-1-0.8-1.9-1.9-1.9h-28.2c-1,0-1.9,0.8-1.9,1.9v6.2c0,1,0.8,1.9,1.9,1.9h28.2
					c1,0,1.9-0.8,1.9-1.9V132.9z M375.7,136.9h-1.6v-1.6h1.6V136.9z M380,137.7c-0.9,0-1.6-0.7-1.6-1.6s0.7-1.6,1.6-1.6
					c0.9,0,1.6,0.7,1.6,1.6S380.9,137.7,380,137.7z"/>
				<path class="st21" d="M385,143.9c0-1-0.8-1.9-1.9-1.9h-28.2c-1,0-1.9,0.8-1.9,1.9v6.2c0,1,0.8,1.9,1.9,1.9h28.2
					c1,0,1.9-0.8,1.9-1.9V143.9z M375.7,148.5h-1.6v-1.6h1.6V148.5z M380,149.3c-0.9,0-1.6-0.7-1.6-1.6c0-0.9,0.7-1.6,1.6-1.6
					c0.9,0,1.6,0.7,1.6,1.6C381.6,148.6,380.9,149.3,380,149.3z"/>
			</g>
		</g>
		<path class="st18" d="M394.2,164.9h-45.7c-3.3,0-5.9-2.7-5.9-5.9v-45.7c0-3.3,2.7-5.9,5.9-5.9h45.7c3.3,0,5.9,2.7,5.9,5.9v45.7
			C400.2,162.2,397.5,164.9,394.2,164.9z"/>
	</g>
</g>
<g id="Tab2">
	<g>
		<path class="st10" d="M285.6,251.3h-67.2c-4.8,0-8.7-3.9-8.7-8.7v-67.2c0-4.8,3.9-8.7,8.7-8.7h67.2c4.8,0,8.7,3.9,8.7,8.7v67.2
			C294.3,247.4,290.4,251.3,285.6,251.3z"/>
		<path class="st19" d="M293.2,231.6h-56.3c-4,0-7.3-3.3-7.3-7.3v-56.3c0-4,3.3-7.3,7.3-7.3h56.3c4,0,7.3,3.3,7.3,7.3v56.3
			C300.5,228.3,297.2,231.6,293.2,231.6z"/>
		<g>
			<path class="st22" d="M293.2,231.6h-56.3c-4,0-7.3-3.3-7.3-7.3v-56.3c0-4,3.3-7.3,7.3-7.3h56.3c4,0,7.3,3.3,7.3,7.3v56.3
				C300.5,228.3,297.2,231.6,293.2,231.6z"/>
			<g>
				<g>
					<path class="st21" d="M245.3,215.6L245.3,215.6c-2.2-2.2-2.2-5.7,0-7.8l12.9-12.9c1.2-1.2,3.2-1.2,4.4,0l3.4,3.4
						c1.2,1.2,1.2,3.2,0,4.4l-12.9,12.9C251,217.7,247.5,217.7,245.3,215.6z"/>
					<polygon class="st21" points="269.2,194.2 266.7,191.7 281.3,177.1 284.5,176.4 283.8,179.6 					"/>
					<path class="st21" d="M267.8,197.6l-4.5-4.5c-0.4-0.4-0.4-1.1,0-1.5l0,0c0.4-0.4,1.1-0.4,1.5,0l4.5,4.5c0.4,0.4,0.4,1.1,0,1.5
						l0,0C268.8,198,268.2,198,267.8,197.6z"/>
				</g>
				<path class="st21" d="M261.7,189l-6.2-6.2c1.2-3.1-1.2-6.9-3.7-7.9l-0.1,4.8c0,1.1-0.9,2-2,2c-1.1,0-2-0.9-2-2l0-4.7
					c-2,0.8-4.1,3.1-4.1,5.8c0,3.1,2.4,5.5,5.3,6c1,0.1,2,0,3-0.4l6.2,6.2L261.7,189z"/>
				<path class="st21" d="M282.2,212.5l0,4.7c2-0.8,4.1-3.1,4.1-5.8c0-3.1-2.2-5.7-5.2-6.1c-1-0.1-1.9-0.2-2.8,0.3l-6.5-6.5
					l-3.5,3.5l6.4,6.4c-1.9,3.8,1,7,3.6,8l0-4.7c0-1.1,0.9-2,2-2C281.4,210.5,282.3,211.4,282.2,212.5z"/>
			</g>
		</g>
		<path class="st18" d="M296.2,231.6h-56.3c-4,0-7.3-3.3-7.3-7.3v-56.3c0-4,3.3-7.3,7.3-7.3h56.3c4,0,7.3,3.3,7.3,7.3v56.3
			C303.5,228.3,300.2,231.6,296.2,231.6z"/>
	</g>
</g>
<g id="Tab1">
	<g>
		<path class="st19" d="M278.2,147.7h67.9c4.9,0,8.8-4,8.8-8.8V71c0-4.9-4-8.8-8.8-8.8h-67.9c-4.9,0-8.8,4-8.8,8.8v67.9
			C269.4,143.8,273.4,147.7,278.2,147.7z"/>
		<path class="st10" d="M341.3,177.9h-81.1c-5.8,0-10.5-4.7-10.5-10.5V86.3c0-5.8,4.7-10.5,10.5-10.5h81.1c5.8,0,10.5,4.7,10.5,10.5
			v81.1C351.8,173.1,347.1,177.9,341.3,177.9z"/>
		<g>
			<path class="st22" d="M278.2,147.7h67.9c4.9,0,8.8-4,8.8-8.8V71c0-4.9-4-8.8-8.8-8.8h-67.9c-4.9,0-8.8,4-8.8,8.8v67.9
				C269.4,143.8,273.4,147.7,278.2,147.7z"/>
			<path class="st21" d="M312.2,78.4L286,88.7c0,0,3.3,36,26.2,42.8c22.9-6.8,26.2-42.8,26.2-42.8L312.2,78.4z M311.5,113.3
				c-0.3,0.5-0.9,0.7-1.4,0.7c0,0,0,0,0,0c-0.6,0-1.1-0.3-1.4-0.8l-9.2-12.7c-0.6-0.8-0.4-1.9,0.4-2.5c0.8-0.6,1.9-0.4,2.5,0.4
				l7.8,10.7l12.7-16.7c0.6-0.8,1.7-1,2.5-0.3c0.8,0.6,1,1.8,0.3,2.6L311.5,113.3z"/>
		</g>
		<path class="st18" d="M281.9,147.7h67.9c4.9,0,8.8-4,8.8-8.8V71c0-4.9-4-8.8-8.8-8.8h-67.9c-4.9,0-8.8,4-8.8,8.8v67.9
			C273,143.8,277,147.7,281.9,147.7z"/>
	</g>
</g>
<g id="Promt2">
	<g>
		<g>
			<rect x="347.8" y="284.9" class="st6" width="85.2" height="57.5"/>
			<rect x="347.8" y="284.9" class="st11" width="85.2" height="57.5"/>
		</g>
		<rect x="349.4" y="289.4" class="st12" width="81.9" height="51.2"/>
		<g>
			<rect x="353.1" y="297.3" class="st1" width="67.3" height="1.5"/>
			<rect x="353.1" y="301.5" class="st1" width="57.3" height="1.5"/>
			<rect x="353.1" y="305.8" class="st1" width="67.3" height="1.5"/>
			<rect x="353.1" y="310" class="st1" width="57.3" height="1.5"/>
			<rect x="353.1" y="314.3" class="st1" width="7.3" height="1.5"/>
			<rect x="353.1" y="318.5" class="st1" width="37.3" height="1.5"/>
			<rect x="353.1" y="322.8" class="st1" width="57.3" height="1.5"/>
			<rect x="353.1" y="327" class="st1" width="7.3" height="1.5"/>
			<rect x="353.1" y="331.3" class="st1" width="7.3" height="1.5"/>
		</g>
	</g>
</g>
<g id="Promt1">
	<g>
		<g>
			<rect x="102" y="165.2" class="st6" width="85.2" height="57.5"/>
			<rect x="102" y="165.2" class="st11" width="85.2" height="57.5"/>
		</g>
		<rect x="103.6" y="169.7" class="st12" width="81.9" height="51.2"/>
		<g>
			<rect x="107.3" y="177.6" class="st1" width="67.3" height="1.5"/>
			<rect x="107.3" y="181.8" class="st1" width="57.3" height="1.5"/>
			<rect x="107.3" y="186.1" class="st1" width="67.3" height="1.5"/>
			<rect x="107.3" y="190.3" class="st1" width="57.3" height="1.5"/>
			<rect x="107.3" y="194.6" class="st1" width="7.3" height="1.5"/>
			<rect x="107.3" y="198.8" class="st1" width="37.3" height="1.5"/>
			<rect x="107.3" y="203.1" class="st1" width="57.3" height="1.5"/>
			<rect x="107.3" y="207.3" class="st1" width="7.3" height="1.5"/>
			<rect x="107.3" y="211.6" class="st1" width="7.3" height="1.5"/>
		</g>
	</g>
</g>
</svg>
